<svg width="428" height="141" viewBox="0 0 428 141" fill="none" xmlns="http://www.w3.org/2000/svg">
<path d="M384.461 73.195C384.461 70.6218 382.375 68.5358 379.802 68.5358C377.229 68.5358 375.143 70.6218 375.143 73.195V77.8542C375.143 80.4274 377.229 82.5134 379.802 82.5134C382.375 82.5134 384.461 80.4274 384.461 77.8542V73.195Z" stroke="#08BD80" stroke-width="4.65923" stroke-linecap="round" stroke-linejoin="round"/>
<path d="M364.171 50.049C364.171 47.4758 362.085 45.3898 359.512 45.3898C356.939 45.3898 354.853 47.4758 354.853 50.049V54.7082C354.853 57.2814 356.939 59.3674 359.512 59.3674C362.085 59.3674 364.171 57.2814 364.171 54.7082V50.049Z" stroke="#08BD80" stroke-width="4.65923" stroke-linecap="round" stroke-linejoin="round"/>
<path d="M354.853 82.6638H364.171" stroke="#08BD80" stroke-width="4.65923" stroke-linecap="round" stroke-linejoin="round"/>
<path d="M373.49 59.3674H382.808" stroke="#08BD80" stroke-width="4.65923" stroke-linecap="round" stroke-linejoin="round"/>
<path d="M354.853 68.686H359.512V82.6637" stroke="#08BD80" stroke-width="4.65923" stroke-linecap="round" stroke-linejoin="round"/>
<path d="M373.49 45.3898H378.149V59.3674" stroke="#08BD80" stroke-width="4.65923" stroke-linecap="round" stroke-linejoin="round"/>
<path d="M368.109 67.6597C368.109 68.0903 368.063 68.4635 367.97 68.7791C367.878 69.0947 367.749 69.3562 367.585 69.5636C367.422 69.771 367.229 69.9255 367.003 70.0269C366.78 70.1284 366.538 70.1791 366.276 70.1791C366.015 70.1791 365.772 70.1284 365.549 70.0269C365.328 69.9255 365.136 69.771 364.974 69.5636C364.812 69.3562 364.684 69.0947 364.592 68.7791C364.502 68.4635 364.457 68.0903 364.457 67.6597C364.457 67.2291 364.502 66.856 364.592 66.5404C364.684 66.2248 364.812 65.9633 364.974 65.7558C365.136 65.5484 365.328 65.3951 365.549 65.2959C365.772 65.1945 366.015 65.1438 366.276 65.1438C366.538 65.1438 366.78 65.1945 367.003 65.2959C367.229 65.3951 367.422 65.5484 367.585 65.7558C367.749 65.9633 367.878 66.2248 367.97 66.5404C368.063 66.856 368.109 67.2291 368.109 67.6597ZM367.027 67.6597C367.027 67.3193 367.005 67.0409 366.963 66.8245C366.92 66.6058 366.862 66.4344 366.79 66.3104C366.72 66.1865 366.64 66.1019 366.55 66.0568C366.46 66.0095 366.368 65.9858 366.276 65.9858C366.184 65.9858 366.092 66.0095 366.002 66.0568C365.914 66.1019 365.835 66.1865 365.765 66.3104C365.698 66.4344 365.643 66.6058 365.6 66.8245C365.559 67.0409 365.539 67.3193 365.539 67.6597C365.539 68.0024 365.559 68.282 365.6 68.4984C365.643 68.7148 365.698 68.8862 365.765 69.0124C365.835 69.1364 365.914 69.2221 366.002 69.2694C366.092 69.3145 366.184 69.3371 366.276 69.3371C366.368 69.3371 366.46 69.3145 366.55 69.2694C366.64 69.2221 366.72 69.1364 366.79 69.0124C366.862 68.8862 366.92 68.7148 366.963 68.4984C367.005 68.282 367.027 68.0024 367.027 67.6597Z" fill="#0EB377"/>
<path d="M373.52 67.6597C373.52 68.0903 373.473 68.4635 373.381 68.7791C373.289 69.0947 373.16 69.3562 372.995 69.5636C372.833 69.771 372.639 69.9255 372.414 70.0269C372.191 70.1284 371.948 70.1791 371.687 70.1791C371.425 70.1791 371.183 70.1284 370.96 70.0269C370.739 69.9255 370.547 69.771 370.385 69.5636C370.222 69.3562 370.095 69.0947 370.003 68.7791C369.913 68.4635 369.867 68.0903 369.867 67.6597C369.867 67.2291 369.913 66.856 370.003 66.5404C370.095 66.2248 370.222 65.9633 370.385 65.7558C370.547 65.5484 370.739 65.3951 370.96 65.2959C371.183 65.1945 371.425 65.1438 371.687 65.1438C371.948 65.1438 372.191 65.1945 372.414 65.2959C372.639 65.3951 372.833 65.5484 372.995 65.7558C373.16 65.9633 373.289 66.2248 373.381 66.5404C373.473 66.856 373.52 67.2291 373.52 67.6597ZM372.438 67.6597C372.438 67.3193 372.416 67.0409 372.373 66.8245C372.33 66.6058 372.273 66.4344 372.201 66.3104C372.131 66.1865 372.051 66.1019 371.961 66.0568C371.871 66.0095 371.779 65.9858 371.687 65.9858C371.594 65.9858 371.503 66.0095 371.413 66.0568C371.325 66.1019 371.246 66.1865 371.176 66.3104C371.108 66.4344 371.053 66.6058 371.01 66.8245C370.97 67.0409 370.95 67.3193 370.95 67.6597C370.95 68.0024 370.97 68.282 371.01 68.4984C371.053 68.7148 371.108 68.8862 371.176 69.0124C371.246 69.1364 371.325 69.2221 371.413 69.2694C371.503 69.3145 371.594 69.3371 371.687 69.3371C371.779 69.3371 371.871 69.3145 371.961 69.2694C372.051 69.2221 372.131 69.1364 372.201 69.0124C372.273 68.8862 372.33 68.7148 372.373 68.4984C372.416 68.282 372.438 68.0024 372.438 67.6597Z" fill="#0EB377"/>
<path d="M389.752 67.6597C389.752 68.0903 389.706 68.4635 389.613 68.7791C389.521 69.0947 389.392 69.3562 389.228 69.5636C389.065 69.771 388.871 69.9255 388.646 70.0269C388.423 70.1284 388.18 70.1791 387.919 70.1791C387.657 70.1791 387.415 70.1284 387.192 70.0269C386.971 69.9255 386.779 69.771 386.617 69.5636C386.455 69.3562 386.327 69.0947 386.235 68.7791C386.145 68.4635 386.1 68.0903 386.1 67.6597C386.1 67.2291 386.145 66.856 386.235 66.5404C386.327 66.2248 386.455 65.9633 386.617 65.7558C386.779 65.5484 386.971 65.3951 387.192 65.2959C387.415 65.1945 387.657 65.1438 387.919 65.1438C388.18 65.1438 388.423 65.1945 388.646 65.2959C388.871 65.3951 389.065 65.5484 389.228 65.7558C389.392 65.9633 389.521 66.2248 389.613 66.5404C389.706 66.856 389.752 67.2291 389.752 67.6597ZM388.67 67.6597C388.67 67.3193 388.648 67.0409 388.605 66.8245C388.563 66.6058 388.505 66.4344 388.433 66.3104C388.363 66.1865 388.283 66.1019 388.193 66.0568C388.103 66.0095 388.011 65.9858 387.919 65.9858C387.826 65.9858 387.735 66.0095 387.645 66.0568C387.557 66.1019 387.478 66.1865 387.408 66.3104C387.341 66.4344 387.285 66.6058 387.243 66.8245C387.202 67.0409 387.182 67.3193 387.182 67.6597C387.182 68.0024 387.202 68.282 387.243 68.4984C387.285 68.7148 387.341 68.8862 387.408 69.0124C387.478 69.1364 387.557 69.2221 387.645 69.2694C387.735 69.3145 387.826 69.3371 387.919 69.3371C388.011 69.3371 388.103 69.3145 388.193 69.2694C388.283 69.2221 388.363 69.1364 388.433 69.0124C388.505 68.8862 388.563 68.7148 388.605 68.4984C388.648 68.282 388.67 68.0024 388.67 67.6597Z" fill="#0EB377"/>
<path d="M57.9022 65.5674C59.7458 65.5674 61.5139 64.835 62.8175 63.5314C64.1211 62.2278 64.8534 60.4597 64.8534 58.6161C64.8534 54.779 63.4632 53.0551 62.0729 50.2746C59.0922 44.316 61.4501 39.0024 67.634 33.5916C69.0242 40.5428 73.195 47.216 78.756 51.6648C84.317 56.1137 87.0975 61.3966 87.0975 66.9576C87.0975 69.5136 86.5941 72.0446 85.6159 74.406C84.6378 76.7674 83.2041 78.9131 81.3968 80.7204C79.5894 82.5278 77.4438 83.9615 75.0823 84.9396C72.7209 85.9177 70.1899 86.4212 67.634 86.4212C65.078 86.4212 62.547 85.9177 60.1856 84.9396C57.8242 83.9615 55.6785 82.5278 53.8711 80.7204C52.0638 78.9131 50.6301 76.7674 49.652 74.406C48.6738 72.0446 48.1704 69.5136 48.1704 66.9576C48.1704 63.7517 49.3744 60.5791 50.9509 58.6161C50.9509 60.4597 51.6833 62.2278 52.9869 63.5314C54.2905 64.835 56.0586 65.5674 57.9022 65.5674Z" stroke="#08BD80" stroke-width="5.56101" stroke-linecap="round" stroke-linejoin="round"/>
<path d="M37.5287 51.761C37.1247 52.2516 36.7351 52.6411 36.36 52.9297C35.9849 53.2183 35.451 53.3626 34.7584 53.3626C34.0947 53.3626 33.4887 53.2039 32.9404 52.8864C32.421 52.569 31.8294 52.2227 31.1657 51.8476C30.502 51.4436 29.7229 51.0829 28.8283 50.7654C27.9337 50.448 26.8227 50.2893 25.4953 50.2893C23.8504 50.2893 22.422 50.5923 21.21 51.1983C20.0269 51.8043 19.0457 52.67 18.2666 53.7954C17.4874 54.9209 16.9103 56.306 16.5351 57.9509C16.16 59.5669 15.9724 61.3993 15.9724 63.4481C15.9724 67.7479 16.7949 71.052 18.4397 73.3606C20.1134 75.6691 22.4076 76.8234 25.3221 76.8234C26.8804 76.8234 28.1069 76.6359 29.0014 76.2607C29.9249 75.8567 30.704 75.4239 31.3389 74.9621C31.9737 74.4716 32.5509 74.0243 33.0703 73.6203C33.6186 73.2163 34.2967 73.0143 35.1047 73.0143C36.1724 73.0143 36.9804 73.4039 37.5287 74.183L41.4244 78.9877C40.0393 80.5749 38.582 81.8734 37.0526 82.8834C35.5231 83.8646 33.9504 84.6437 32.3344 85.2209C30.7473 85.7691 29.1457 86.1443 27.5297 86.3463C25.9137 86.5771 24.341 86.6926 22.8116 86.6926C20.0701 86.6926 17.4441 86.1731 14.9336 85.1343C12.4519 84.0954 10.2587 82.5949 8.35414 80.6326C6.47843 78.6414 4.97786 76.203 3.85243 73.3173C2.75586 70.4316 2.20757 67.1419 2.20757 63.4481C2.20757 60.2161 2.68371 57.2006 3.636 54.4014C4.61714 51.5734 6.04557 49.135 7.92129 47.0861C9.82586 45.0084 12.1633 43.378 14.9336 42.1949C17.7327 41.0117 20.9647 40.4201 24.6296 40.4201C28.1501 40.4201 31.2379 40.9829 33.8927 42.1083C36.5476 43.2337 38.9427 44.8786 41.0781 47.0429L37.5287 51.761Z" fill="white"/>
<path d="M141.724 62.0534C141.724 65.6347 141.1 68.944 139.854 71.9813C138.63 74.996 136.896 77.614 134.652 79.8353C132.408 82.0339 129.699 83.7566 126.526 85.0032C123.375 86.2272 119.873 86.8392 116.02 86.8392H96.7761V37.3016H116.02C119.873 37.3016 123.375 37.9249 126.526 39.1716C129.699 40.4182 132.408 42.1409 134.652 44.3395C136.896 46.5382 138.63 49.1562 139.854 52.1935C141.1 55.2081 141.724 58.4948 141.724 62.0534ZM129.96 62.0534C129.96 59.6054 129.643 57.3954 129.008 55.4235C128.373 53.4515 127.455 51.7855 126.254 50.4255C125.075 49.0428 123.625 47.9888 121.902 47.2635C120.179 46.5155 118.219 46.1415 116.02 46.1415H108.336V77.9993H116.02C118.219 77.9993 120.179 77.6366 121.902 76.9113C123.625 76.1633 125.075 75.1093 126.254 73.7493C127.455 72.3667 128.373 70.6893 129.008 68.7174C129.643 66.7454 129.96 64.5241 129.96 62.0534Z" fill="white"/>
<path d="M160.64 46.1415V57.7014H176.212V66.2014H160.64V77.9993H180.971V86.8392H149.08V37.3016H180.971V46.1415H160.64Z" fill="white"/>
<path d="M219.735 47.3655C219.395 47.9095 219.033 48.3175 218.647 48.5895C218.285 48.8615 217.809 48.9975 217.219 48.9975C216.698 48.9975 216.131 48.8388 215.519 48.5215C214.93 48.1815 214.25 47.8075 213.479 47.3995C212.731 46.9915 211.87 46.6288 210.895 46.3115C209.921 45.9715 208.81 45.8015 207.563 45.8015C205.41 45.8015 203.801 46.2662 202.735 47.1955C201.693 48.1022 201.171 49.3375 201.171 50.9015C201.171 51.8988 201.489 52.7261 202.123 53.3835C202.758 54.0408 203.585 54.6075 204.605 55.0835C205.648 55.5594 206.827 56.0014 208.141 56.4094C209.479 56.7948 210.839 57.2368 212.221 57.7354C213.604 58.2114 214.953 58.7781 216.267 59.4354C217.605 60.0928 218.783 60.9314 219.803 61.9514C220.846 62.9714 221.685 64.2181 222.319 65.6914C222.954 67.142 223.271 68.8987 223.271 70.9613C223.271 73.2507 222.875 75.3926 222.081 77.3873C221.288 79.382 220.132 81.1273 218.613 82.6233C217.117 84.0966 215.259 85.2639 213.037 86.1252C210.839 86.9639 208.334 87.3832 205.523 87.3832C203.982 87.3832 202.407 87.2246 200.797 86.9072C199.211 86.5899 197.669 86.1479 196.173 85.5812C194.677 84.9919 193.272 84.3006 191.957 83.5073C190.643 82.7139 189.498 81.8299 188.523 80.8553L191.923 75.4833C192.195 75.098 192.547 74.7807 192.977 74.5313C193.431 74.2593 193.918 74.1233 194.439 74.1233C195.119 74.1233 195.799 74.3387 196.479 74.7693C197.182 75.2 197.964 75.676 198.825 76.1973C199.709 76.7186 200.718 77.1946 201.851 77.6253C202.985 78.056 204.322 78.2713 205.863 78.2713C207.949 78.2713 209.569 77.818 210.725 76.9113C211.881 75.982 212.459 74.52 212.459 72.5253C212.459 71.3693 212.142 70.4287 211.507 69.7034C210.873 68.978 210.034 68.3774 208.991 67.9014C207.971 67.4254 206.804 67.006 205.489 66.6434C204.175 66.2807 202.826 65.884 201.443 65.4534C200.061 65.0001 198.712 64.4561 197.397 63.8214C196.083 63.1641 194.904 62.3141 193.861 61.2714C192.841 60.2061 192.014 58.8914 191.379 57.3274C190.745 55.7408 190.427 53.7915 190.427 51.4795C190.427 49.6208 190.801 47.8075 191.549 46.0395C192.297 44.2715 193.397 42.6962 194.847 41.3135C196.298 39.9309 198.077 38.8316 200.185 38.0156C202.293 37.1769 204.707 36.7576 207.427 36.7576C208.946 36.7576 210.419 36.8822 211.847 37.1316C213.298 37.3582 214.669 37.7096 215.961 38.1856C217.253 38.6389 218.455 39.1942 219.565 39.8516C220.699 40.4862 221.707 41.2115 222.591 42.0275L219.735 47.3655Z" fill="white"/>
<path d="M272.291 38.8625V83.4464H266.906C266.11 83.4464 265.437 83.324 264.886 83.0792C264.356 82.814 263.825 82.3652 263.295 81.7328L242.273 55.1416C242.354 55.9372 242.405 56.7124 242.426 57.4672C242.466 58.2016 242.487 58.8952 242.487 59.548V83.4464H233.368V38.8625H238.815C239.264 38.8625 239.641 38.8829 239.947 38.9237C240.253 38.9645 240.528 39.0461 240.773 39.1685C241.018 39.2705 241.253 39.4235 241.477 39.6275C241.701 39.8315 241.956 40.1069 242.242 40.4537L263.448 67.2285C263.346 66.3717 263.274 65.5455 263.234 64.7499C263.193 63.9339 263.172 63.169 263.172 62.455V38.8625H272.291Z" fill="white"/>
<path d="M297.879 83.4464H287.475V38.8625H297.879V83.4464Z" fill="white"/>
<path d="M295.786 41.4821L306.607 30.6607L295.786 19.8392" stroke="white" stroke-width="3.60714" stroke-linecap="round" stroke-linejoin="round"/>
<path d="M290.375 19.8392L279.554 30.6607L290.375 41.4821" stroke="white" stroke-width="3.60714" stroke-linecap="round" stroke-linejoin="round"/>
<path d="M328.454 60.7414C331.146 60.7414 333.084 60.0988 334.268 58.8136C335.451 57.5284 336.042 55.7332 336.042 53.428C336.042 52.408 335.889 51.4798 335.583 50.6434C335.277 49.807 334.808 49.0931 334.176 48.5015C333.564 47.8895 332.778 47.4203 331.82 47.0939C330.881 46.7675 329.759 46.6043 328.454 46.6043H323.068V60.7414H328.454ZM328.454 38.8625C331.595 38.8625 334.288 39.2399 336.532 39.9947C338.796 40.7291 340.653 41.7491 342.101 43.0547C343.57 44.3603 344.651 45.9005 345.345 47.6753C346.038 49.45 346.385 51.3676 346.385 53.428C346.385 55.6516 346.028 57.6916 345.314 59.548C344.6 61.4044 343.509 62.9956 342.04 64.3215C340.571 65.6475 338.704 66.6879 336.44 67.4427C334.196 68.1771 331.534 68.5443 328.454 68.5443H323.068V83.4464H312.725V38.8625H328.454Z" fill="white"/>
<path d="M427.728 48.8669H415.182V85.25H404.839V48.8669H392.293V40.6661H427.728V48.8669Z" fill="white"/>
</svg>
