<svg width="445" height="147" viewBox="0 0 445 147" fill="none" xmlns="http://www.w3.org/2000/svg">
<path d="M399.687 76.3883C399.687 73.7132 397.519 71.5446 394.844 71.5446C392.169 71.5446 390 73.7132 390 76.3883V81.2321C390 83.9072 392.169 86.0758 394.844 86.0758C397.519 86.0758 399.687 83.9072 399.687 81.2321V76.3883Z" stroke="#08BD80" stroke-width="4.84375" stroke-linecap="round" stroke-linejoin="round"/>
<path d="M378.594 52.3258C378.594 49.6507 376.425 47.4821 373.75 47.4821C371.075 47.4821 368.906 49.6507 368.906 52.3258V57.1696C368.906 59.8447 371.075 62.0133 373.75 62.0133C376.425 62.0133 378.594 59.8447 378.594 57.1696V52.3258Z" stroke="#08BD80" stroke-width="4.84375" stroke-linecap="round" stroke-linejoin="round"/>
<path d="M368.906 86.2322H378.594" stroke="#08BD80" stroke-width="4.84375" stroke-linecap="round" stroke-linejoin="round"/>
<path d="M388.281 62.0133H397.969" stroke="#08BD80" stroke-width="4.84375" stroke-linecap="round" stroke-linejoin="round"/>
<path d="M368.906 71.7009H373.75V86.2322" stroke="#08BD80" stroke-width="4.84375" stroke-linecap="round" stroke-linejoin="round"/>
<path d="M388.281 47.4821H393.125V62.0133" stroke="#08BD80" stroke-width="4.84375" stroke-linecap="round" stroke-linejoin="round"/>
<path d="M382.688 70.3568C382.688 70.8044 382.639 71.1923 382.543 71.5205C382.447 71.8486 382.314 72.1205 382.143 72.3361C381.974 72.5517 381.772 72.7123 381.538 72.8177C381.306 72.9232 381.054 72.9759 380.782 72.9759C380.51 72.9759 380.258 72.9232 380.026 72.8177C379.796 72.7123 379.597 72.5517 379.429 72.3361C379.26 72.1205 379.127 71.8486 379.031 71.5205C378.938 71.1923 378.891 70.8044 378.891 70.3568C378.891 69.9091 378.938 69.5212 379.031 69.1931C379.127 68.865 379.26 68.5931 379.429 68.3775C379.597 68.1619 379.796 68.0025 380.026 67.8994C380.258 67.7939 380.51 67.7412 380.782 67.7412C381.054 67.7412 381.306 67.7939 381.538 67.8994C381.772 68.0025 381.974 68.1619 382.143 68.3775C382.314 68.5931 382.447 68.865 382.543 69.1931C382.639 69.5212 382.688 69.9091 382.688 70.3568ZM381.563 70.3568C381.563 70.0029 381.54 69.7134 381.496 69.4884C381.451 69.2611 381.391 69.083 381.316 68.9541C381.244 68.8251 381.161 68.7373 381.067 68.6904C380.973 68.6412 380.878 68.6166 380.782 68.6166C380.686 68.6166 380.591 68.6412 380.497 68.6904C380.406 68.7373 380.324 68.8251 380.251 68.9541C380.181 69.083 380.123 69.2611 380.079 69.4884C380.037 69.7134 380.016 70.0029 380.016 70.3568C380.016 70.713 380.037 71.0037 380.079 71.2287C380.123 71.4537 380.181 71.6318 380.251 71.763C380.324 71.8919 380.406 71.981 380.497 72.0302C380.591 72.0771 380.686 72.1005 380.782 72.1005C380.878 72.1005 380.973 72.0771 381.067 72.0302C381.161 71.981 381.244 71.8919 381.316 71.763C381.391 71.6318 381.451 71.4537 381.496 71.2287C381.54 71.0037 381.563 70.713 381.563 70.3568Z" fill="#0EB377"/>
<path d="M388.313 70.3568C388.313 70.8044 388.264 71.1923 388.168 71.5205C388.072 71.8486 387.939 72.1205 387.768 72.3361C387.599 72.5517 387.397 72.7123 387.163 72.8177C386.931 72.9232 386.679 72.9759 386.407 72.9759C386.135 72.9759 385.883 72.9232 385.651 72.8177C385.421 72.7123 385.222 72.5517 385.054 72.3361C384.885 72.1205 384.752 71.8486 384.656 71.5205C384.563 71.1923 384.516 70.8044 384.516 70.3568C384.516 69.9091 384.563 69.5212 384.656 69.1931C384.752 68.865 384.885 68.5931 385.054 68.3775C385.222 68.1619 385.421 68.0025 385.651 67.8994C385.883 67.7939 386.135 67.7412 386.407 67.7412C386.679 67.7412 386.931 67.7939 387.163 67.8994C387.397 68.0025 387.599 68.1619 387.768 68.3775C387.939 68.5931 388.072 68.865 388.168 69.1931C388.264 69.5212 388.313 69.9091 388.313 70.3568ZM387.188 70.3568C387.188 70.0029 387.165 69.7134 387.121 69.4884C387.076 69.2611 387.016 69.083 386.941 68.9541C386.869 68.8251 386.786 68.7373 386.692 68.6904C386.598 68.6412 386.503 68.6166 386.407 68.6166C386.311 68.6166 386.216 68.6412 386.122 68.6904C386.031 68.7373 385.949 68.8251 385.876 68.9541C385.806 69.083 385.748 69.2611 385.704 69.4884C385.662 69.7134 385.641 70.0029 385.641 70.3568C385.641 70.713 385.662 71.0037 385.704 71.2287C385.748 71.4537 385.806 71.6318 385.876 71.763C385.949 71.8919 386.031 71.981 386.122 72.0302C386.216 72.0771 386.311 72.1005 386.407 72.1005C386.503 72.1005 386.598 72.0771 386.692 72.0302C386.786 71.981 386.869 71.8919 386.941 71.763C387.016 71.6318 387.076 71.4537 387.121 71.2287C387.165 71.0037 387.188 70.713 387.188 70.3568Z" fill="#0EB377"/>
<path d="M405.188 70.3568C405.188 70.8044 405.139 71.1923 405.043 71.5205C404.947 71.8486 404.814 72.1205 404.643 72.3361C404.474 72.5517 404.272 72.7123 404.038 72.8177C403.806 72.9232 403.554 72.9759 403.282 72.9759C403.01 72.9759 402.758 72.9232 402.526 72.8177C402.296 72.7123 402.097 72.5517 401.929 72.3361C401.76 72.1205 401.627 71.8486 401.531 71.5205C401.438 71.1923 401.391 70.8044 401.391 70.3568C401.391 69.9091 401.438 69.5212 401.531 69.1931C401.627 68.865 401.76 68.5931 401.929 68.3775C402.097 68.1619 402.296 68.0025 402.526 67.8994C402.758 67.7939 403.01 67.7412 403.282 67.7412C403.554 67.7412 403.806 67.7939 404.038 67.8994C404.272 68.0025 404.474 68.1619 404.643 68.3775C404.814 68.5931 404.947 68.865 405.043 69.1931C405.139 69.5212 405.188 69.9091 405.188 70.3568ZM404.063 70.3568C404.063 70.0029 404.04 69.7134 403.996 69.4884C403.951 69.2611 403.891 69.083 403.816 68.9541C403.744 68.8251 403.661 68.7373 403.567 68.6904C403.473 68.6412 403.378 68.6166 403.282 68.6166C403.186 68.6166 403.091 68.6412 402.997 68.6904C402.906 68.7373 402.824 68.8251 402.751 68.9541C402.681 69.083 402.623 69.2611 402.579 69.4884C402.537 69.7134 402.516 70.0029 402.516 70.3568C402.516 70.713 402.537 71.0037 402.579 71.2287C402.623 71.4537 402.681 71.6318 402.751 71.763C402.824 71.8919 402.906 71.981 402.997 72.0302C403.091 72.0771 403.186 72.1005 403.282 72.1005C403.378 72.1005 403.473 72.0771 403.567 72.0302C403.661 71.981 403.744 71.8919 403.816 71.763C403.891 71.6318 403.951 71.4537 403.996 71.2287C404.04 71.0037 404.063 70.713 404.063 70.3568Z" fill="#0EB377"/>
<path d="M60.1953 68.4587C62.1119 68.4587 63.95 67.6974 65.3053 66.3421C66.6605 64.9869 67.4219 63.1488 67.4219 61.2322C67.4219 57.2431 65.9766 55.4509 64.5313 52.5603C61.4325 46.3657 63.8838 40.8417 70.3125 35.2166C71.7578 42.4431 76.0938 49.3806 81.875 54.0056C87.6563 58.6306 90.5469 64.1228 90.5469 69.9041C90.5469 72.5613 90.0235 75.1925 89.0066 77.6474C87.9898 80.1024 86.4993 82.333 84.6204 84.2119C82.7414 86.0909 80.5108 87.5813 78.0559 88.5982C75.6009 89.6151 72.9697 90.1384 70.3125 90.1384C67.6553 90.1384 65.0241 89.6151 62.5692 88.5982C60.1142 87.5813 57.8836 86.0909 56.0047 84.2119C54.1257 82.333 52.6353 80.1024 51.6184 77.6474C50.6015 75.1925 50.0781 72.5613 50.0781 69.9041C50.0781 66.5712 51.3298 63.273 52.9688 61.2322C52.9688 63.1488 53.7301 64.9869 55.0854 66.3421C56.4406 67.6974 58.2787 68.4587 60.1953 68.4587Z" stroke="#08BD80" stroke-width="5.78125" stroke-linecap="round" stroke-linejoin="round"/>
<path d="M39.015 53.6996C38.595 54.2096 38.19 54.6146 37.8 54.9146C37.41 55.2146 36.855 55.3646 36.135 55.3646C35.445 55.3646 34.815 55.1996 34.245 54.8696C33.705 54.5396 33.09 54.1796 32.4 53.7896C31.71 53.3696 30.9 52.9946 29.97 52.6646C29.04 52.3346 27.885 52.1696 26.505 52.1696C24.795 52.1696 23.31 52.4846 22.05 53.1146C20.82 53.7446 19.8 54.6446 18.99 55.8146C18.18 56.9846 17.58 58.4246 17.19 60.1346C16.8 61.8146 16.605 63.7196 16.605 65.8496C16.605 70.3196 17.46 73.7546 19.17 76.1546C20.91 78.5546 23.295 79.7546 26.325 79.7546C27.945 79.7546 29.22 79.5596 30.15 79.1696C31.11 78.7496 31.92 78.2996 32.58 77.8196C33.24 77.3096 33.84 76.8446 34.38 76.4246C34.95 76.0046 35.655 75.7946 36.495 75.7946C37.605 75.7946 38.445 76.1996 39.015 77.0096L43.065 82.0046C41.625 83.6546 40.11 85.0046 38.52 86.0546C36.93 87.0746 35.295 87.8846 33.615 88.4846C31.965 89.0546 30.3 89.4446 28.62 89.6546C26.94 89.8946 25.305 90.0146 23.715 90.0146C20.865 90.0146 18.135 89.4746 15.525 88.3946C12.945 87.3146 10.665 85.7546 8.685 83.7146C6.735 81.6446 5.175 79.1096 4.005 76.1096C2.865 73.1096 2.295 69.6896 2.295 65.8496C2.295 62.4896 2.79 59.3546 3.78 56.4446C4.8 53.5046 6.285 50.9696 8.235 48.8396C10.215 46.6796 12.645 44.9846 15.525 43.7546C18.435 42.5246 21.795 41.9096 25.605 41.9096C29.265 41.9096 32.475 42.4946 35.235 43.6646C37.995 44.8346 40.485 46.5446 42.705 48.7946L39.015 53.6996Z" fill="black"/>
<path d="M147.337 65.1522C147.337 68.8754 146.689 72.3157 145.393 75.4734C144.12 78.6074 142.317 81.3291 139.985 83.6383C137.652 85.9241 134.836 87.7149 131.537 89.011C128.261 90.2834 124.621 90.9197 120.615 90.9197H100.609V39.4201H120.615C124.621 39.4201 128.261 40.0682 131.537 41.3642C134.836 42.6602 137.652 44.4511 139.985 46.7368C142.317 49.0225 144.12 51.7442 145.393 54.9018C146.689 58.0358 147.337 61.4527 147.337 65.1522ZM135.107 65.1522C135.107 62.6073 134.777 60.3098 134.117 58.2597C133.457 56.2096 132.503 54.4777 131.254 53.0638C130.029 51.6264 128.521 50.5307 126.73 49.7766C124.939 48.999 122.901 48.6102 120.615 48.6102H112.627V81.7296H120.615C122.901 81.7296 124.939 81.3526 126.73 80.5986C128.521 79.8209 130.029 78.7252 131.254 77.3114C132.503 75.8739 133.457 74.1302 134.117 72.0801C134.777 70.03 135.107 67.7207 135.107 65.1522Z" fill="black"/>
<path d="M167.002 48.6102V60.6279H183.19V69.4645H167.002V81.7296H188.139V90.9197H154.984V39.4201H188.139V48.6102H167.002Z" fill="black"/>
<path d="M228.438 49.8826C228.084 50.4482 227.707 50.8723 227.307 51.1551C226.929 51.4379 226.435 51.5793 225.822 51.5793C225.28 51.5793 224.691 51.4143 224.055 51.0844C223.442 50.7309 222.735 50.3421 221.934 49.918C221.156 49.4938 220.261 49.1168 219.248 48.7869C218.234 48.4334 217.08 48.2567 215.784 48.2567C213.545 48.2567 211.872 48.7398 210.764 49.7059C209.68 50.6485 209.139 51.9327 209.139 53.5587C209.139 54.5955 209.468 55.4556 210.128 56.1389C210.788 56.8223 211.648 57.4114 212.708 57.9062C213.792 58.4011 215.018 58.8606 216.385 59.2847C217.775 59.6853 219.189 60.1448 220.626 60.6633C222.063 61.1581 223.466 61.7472 224.832 62.4306C226.223 63.1139 227.448 63.9858 228.508 65.0462C229.592 66.1066 230.464 67.4026 231.124 68.9343C231.784 70.4424 232.114 72.2686 232.114 74.413C232.114 76.7929 231.701 79.0198 230.876 81.0934C230.052 83.1671 228.85 84.9815 227.271 86.5367C225.716 88.0684 223.784 89.282 221.474 90.1774C219.189 91.0493 216.585 91.4852 213.663 91.4852C212.06 91.4852 210.423 91.3203 208.75 90.9904C207.1 90.6605 205.498 90.201 203.943 89.6119C202.387 88.9992 200.926 88.2805 199.56 87.4557C198.193 86.631 197.003 85.712 195.99 84.6987L199.524 79.114C199.807 78.7134 200.172 78.3835 200.62 78.1243C201.091 77.8416 201.598 77.7002 202.14 77.7002C202.847 77.7002 203.554 77.924 204.261 78.3717C204.991 78.8195 205.804 79.3143 206.7 79.8563C207.619 80.3983 208.667 80.8931 209.845 81.3408C211.024 81.7886 212.414 82.0124 214.016 82.0124C216.184 82.0124 217.869 81.5411 219.071 80.5986C220.273 79.6324 220.873 78.1125 220.873 76.0389C220.873 74.8371 220.544 73.8592 219.884 73.1051C219.224 72.3511 218.352 71.7266 217.268 71.2318C216.208 70.7369 214.994 70.301 213.627 69.924C212.261 69.547 210.859 69.1346 209.421 68.6869C207.984 68.2156 206.582 67.65 205.215 66.9902C203.848 66.3069 202.623 65.4232 201.539 64.3393C200.479 63.2318 199.619 61.865 198.959 60.2391C198.299 58.5896 197.969 56.5631 197.969 54.1595C197.969 52.2273 198.358 50.3421 199.136 48.5041C199.913 46.6661 201.056 45.0284 202.564 43.591C204.072 42.1536 205.922 41.0107 208.113 40.1624C210.305 39.2905 212.815 38.8546 215.642 38.8546C217.221 38.8546 218.753 38.9842 220.237 39.2434C221.745 39.479 223.171 39.8443 224.514 40.3391C225.857 40.8104 227.106 41.3877 228.261 42.0711C229.439 42.7309 230.488 43.485 231.407 44.3333L228.438 49.8826Z" fill="black"/>
<path d="M283.075 41.3201V87.6697H277.476C276.649 87.6697 275.949 87.5424 275.376 87.2879C274.825 87.0122 274.274 86.5457 273.722 85.8882L251.868 58.2439C251.952 59.071 252.005 59.8769 252.027 60.6616C252.069 61.4251 252.09 62.1461 252.09 62.8248V87.6697H242.61V41.3201H248.273C248.739 41.3201 249.132 41.3413 249.45 41.3837C249.768 41.4261 250.054 41.511 250.309 41.6382C250.563 41.7442 250.807 41.9033 251.041 42.1154C251.274 42.3275 251.539 42.6138 251.836 42.9743L273.881 70.8095C273.775 69.9188 273.701 69.0599 273.659 68.2328C273.616 67.3844 273.595 66.5892 273.595 65.8469V41.3201H283.075Z" fill="black"/>
<path d="M309.676 87.6697H298.86V41.3201H309.676V87.6697Z" fill="black"/>
<path d="M307.5 43.4197L318.75 32.1697L307.5 20.9197" stroke="black" stroke-width="3.75" stroke-linecap="round" stroke-linejoin="round"/>
<path d="M301.875 20.9197L290.625 32.1697L301.875 43.4197" stroke="black" stroke-width="3.75" stroke-linecap="round" stroke-linejoin="round"/>
<path d="M341.462 64.0654C344.261 64.0654 346.276 63.3974 347.506 62.0613C348.736 60.7252 349.351 58.8589 349.351 56.4624C349.351 55.4021 349.192 54.4371 348.874 53.5676C348.556 52.6981 348.068 51.9558 347.41 51.3408C346.774 50.7045 345.958 50.2167 344.961 49.8774C343.985 49.5381 342.819 49.3684 341.462 49.3684H335.863V64.0654H341.462ZM341.462 41.3201C344.728 41.3201 347.527 41.7124 349.86 42.4971C352.214 43.2606 354.144 44.321 355.65 45.6783C357.177 47.0356 358.301 48.6368 359.022 50.4818C359.743 52.3269 360.103 54.3205 360.103 56.4624C360.103 58.7741 359.732 60.8949 358.99 62.8248C358.248 64.7547 357.113 66.4089 355.586 67.7874C354.059 69.1659 352.119 70.2475 349.764 71.0322C347.432 71.7957 344.664 72.1774 341.462 72.1774H335.863V87.6697H325.11V41.3201H341.462Z" fill="black"/>
<path d="M444.667 51.7206H431.624V89.5447H420.872V51.7206H407.829V43.1951H444.667V51.7206Z" fill="black"/>
</svg>
