<svg width="461" height="147" viewBox="0 0 461 147" fill="none" xmlns="http://www.w3.org/2000/svg">
<path d="M410.57 74.4784C410.57 71.2567 407.958 68.645 404.737 68.645C401.515 68.645 398.903 71.2567 398.903 74.4784V80.3117C398.903 83.5333 401.515 86.145 404.737 86.145C407.958 86.145 410.57 83.5333 410.57 80.3117V74.4784Z" stroke="#08BD80" stroke-width="5.83333" stroke-linecap="round" stroke-linejoin="round"/>
<path d="M385.167 45.4998C385.167 42.2782 382.555 39.6665 379.333 39.6665C376.112 39.6665 373.5 42.2782 373.5 45.4998V51.3332C373.5 54.5548 376.112 57.1665 379.333 57.1665C382.555 57.1665 385.167 54.5548 385.167 51.3332V45.4998Z" stroke="#08BD80" stroke-width="5.83333" stroke-linecap="round" stroke-linejoin="round"/>
<path d="M373.5 86.3334H385.167" stroke="#08BD80" stroke-width="5.83333" stroke-linecap="round" stroke-linejoin="round"/>
<path d="M396.833 57.1665H408.5" stroke="#08BD80" stroke-width="5.83333" stroke-linecap="round" stroke-linejoin="round"/>
<path d="M373.5 68.8334H379.333V86.3334" stroke="#08BD80" stroke-width="5.83333" stroke-linecap="round" stroke-linejoin="round"/>
<path d="M396.833 39.6665H402.667V57.1665" stroke="#08BD80" stroke-width="5.83333" stroke-linecap="round" stroke-linejoin="round"/>
<path d="M390.097 66.7845C390.097 67.3236 390.039 67.7907 389.923 68.1859C389.807 68.5811 389.647 68.9085 389.441 69.1681C389.237 69.4278 388.995 69.6212 388.712 69.7482C388.433 69.8752 388.129 69.9387 387.802 69.9387C387.475 69.9387 387.171 69.8752 386.892 69.7482C386.615 69.6212 386.375 69.4278 386.172 69.1681C385.969 68.9085 385.809 68.5811 385.694 68.1859C385.581 67.7907 385.524 67.3236 385.524 66.7845C385.524 66.2454 385.581 65.7782 385.694 65.3831C385.809 64.9879 385.969 64.6605 386.172 64.4008C386.375 64.1411 386.615 63.9492 386.892 63.825C387.171 63.698 387.475 63.6345 387.802 63.6345C388.129 63.6345 388.433 63.698 388.712 63.825C388.995 63.9492 389.237 64.1411 389.441 64.4008C389.647 64.6605 389.807 64.9879 389.923 65.3831C390.039 65.7782 390.097 66.2454 390.097 66.7845ZM388.742 66.7845C388.742 66.3583 388.715 66.0097 388.661 65.7387C388.608 65.4649 388.536 65.2504 388.446 65.0952C388.358 64.9399 388.258 64.8341 388.145 64.7776C388.032 64.7184 387.918 64.6887 387.802 64.6887C387.686 64.6887 387.572 64.7184 387.459 64.7776C387.349 64.8341 387.25 64.9399 387.163 65.0952C387.078 65.2504 387.009 65.4649 386.955 65.7387C386.904 66.0097 386.879 66.3583 386.879 66.7845C386.879 67.2135 386.904 67.5635 386.955 67.8345C387.009 68.1054 387.078 68.32 387.163 68.478C387.25 68.6333 387.349 68.7405 387.459 68.7998C387.572 68.8563 387.686 68.8845 387.802 68.8845C387.918 68.8845 388.032 68.8563 388.145 68.7998C388.258 68.7405 388.358 68.6333 388.446 68.478C388.536 68.32 388.608 68.1054 388.661 67.8345C388.715 67.5635 388.742 67.2135 388.742 66.7845Z" fill="#0EB377"/>
<path d="M396.871 66.7845C396.871 67.3236 396.813 67.7907 396.697 68.1859C396.582 68.5811 396.421 68.9085 396.215 69.1681C396.011 69.4278 395.769 69.6212 395.486 69.7482C395.207 69.8752 394.904 69.9387 394.576 69.9387C394.249 69.9387 393.945 69.8752 393.666 69.7482C393.389 69.6212 393.149 69.4278 392.946 69.1681C392.743 68.9085 392.583 68.5811 392.468 68.1859C392.355 67.7907 392.298 67.3236 392.298 66.7845C392.298 66.2454 392.355 65.7782 392.468 65.3831C392.583 64.9879 392.743 64.6605 392.946 64.4008C393.149 64.1411 393.389 63.9492 393.666 63.825C393.945 63.698 394.249 63.6345 394.576 63.6345C394.904 63.6345 395.207 63.698 395.486 63.825C395.769 63.9492 396.011 64.1411 396.215 64.4008C396.421 64.6605 396.582 64.9879 396.697 65.3831C396.813 65.7782 396.871 66.2454 396.871 66.7845ZM395.516 66.7845C395.516 66.3583 395.489 66.0097 395.436 65.7387C395.382 65.4649 395.31 65.2504 395.22 65.0952C395.132 64.9399 395.032 64.8341 394.919 64.7776C394.806 64.7184 394.692 64.6887 394.576 64.6887C394.46 64.6887 394.346 64.7184 394.233 64.7776C394.123 64.8341 394.024 64.9399 393.937 65.0952C393.852 65.2504 393.783 65.4649 393.729 65.7387C393.679 66.0097 393.653 66.3583 393.653 66.7845C393.653 67.2135 393.679 67.5635 393.729 67.8345C393.783 68.1054 393.852 68.32 393.937 68.478C394.024 68.6333 394.123 68.7405 394.233 68.7998C394.346 68.8563 394.46 68.8845 394.576 68.8845C394.692 68.8845 394.806 68.8563 394.919 68.7998C395.032 68.7405 395.132 68.6333 395.22 68.478C395.31 68.32 395.382 68.1054 395.436 67.8345C395.489 67.5635 395.516 67.2135 395.516 66.7845Z" fill="#0EB377"/>
<path d="M417.194 66.7845C417.194 67.3236 417.136 67.7907 417.02 68.1859C416.904 68.5811 416.743 68.9085 416.537 69.1681C416.334 69.4278 416.091 69.6212 415.809 69.7482C415.53 69.8752 415.226 69.9387 414.899 69.9387C414.571 69.9387 414.268 69.8752 413.989 69.7482C413.712 69.6212 413.472 69.4278 413.269 69.1681C413.066 68.9085 412.906 68.5811 412.79 68.1859C412.677 67.7907 412.621 67.3236 412.621 66.7845C412.621 66.2454 412.677 65.7782 412.79 65.3831C412.906 64.9879 413.066 64.6605 413.269 64.4008C413.472 64.1411 413.712 63.9492 413.989 63.825C414.268 63.698 414.571 63.6345 414.899 63.6345C415.226 63.6345 415.53 63.698 415.809 63.825C416.091 63.9492 416.334 64.1411 416.537 64.4008C416.743 64.6605 416.904 64.9879 417.02 65.3831C417.136 65.7782 417.194 66.2454 417.194 66.7845ZM415.839 66.7845C415.839 66.3583 415.812 66.0097 415.758 65.7387C415.705 65.4649 415.633 65.2504 415.542 65.0952C415.455 64.9399 415.355 64.8341 415.242 64.7776C415.129 64.7184 415.015 64.6887 414.899 64.6887C414.783 64.6887 414.669 64.7184 414.556 64.7776C414.446 64.8341 414.347 64.9399 414.259 65.0952C414.175 65.2504 414.106 65.4649 414.052 65.7387C414.001 66.0097 413.976 66.3583 413.976 66.7845C413.976 67.2135 414.001 67.5635 414.052 67.8345C414.106 68.1054 414.175 68.32 414.259 68.478C414.347 68.6333 414.446 68.7405 414.556 68.7998C414.669 68.8563 414.783 68.8845 414.899 68.8845C415.015 68.8845 415.129 68.8563 415.242 68.7998C415.355 68.7405 415.455 68.6333 415.542 68.478C415.633 68.32 415.705 68.1054 415.758 67.8345C415.812 67.5635 415.839 67.2135 415.839 66.7845Z" fill="#0EB377"/>
<path d="M60.1953 68.1641C62.1119 68.1641 63.95 67.4027 65.3053 66.0475C66.6605 64.6922 67.4219 62.8541 67.4219 60.9375C67.4219 56.9484 65.9766 55.1562 64.5313 52.2656C61.4325 46.071 63.8838 40.547 70.3125 34.9219C71.7578 42.1484 76.0938 49.0859 81.875 53.7109C87.6563 58.3359 90.5469 63.8281 90.5469 69.6094C90.5469 72.2666 90.0235 74.8978 89.0066 77.3527C87.9898 79.8077 86.4993 82.0383 84.6204 83.9172C82.7414 85.7962 80.5108 87.2866 78.0559 88.3035C75.6009 89.3204 72.9697 89.8438 70.3125 89.8438C67.6553 89.8438 65.0241 89.3204 62.5692 88.3035C60.1142 87.2866 57.8836 85.7962 56.0047 83.9172C54.1257 82.0383 52.6353 79.8077 51.6184 77.3527C50.6015 74.8978 50.0781 72.2666 50.0781 69.6094C50.0781 66.2765 51.3298 62.9783 52.9688 60.9375C52.9688 62.8541 53.7301 64.6922 55.0854 66.0475C56.4406 67.4027 58.2787 68.1641 60.1953 68.1641Z" stroke="#08BD80" stroke-width="5.78125" stroke-linecap="round" stroke-linejoin="round"/>
<path d="M39.015 53.405C38.595 53.915 38.19 54.32 37.8 54.62C37.41 54.92 36.855 55.07 36.135 55.07C35.445 55.07 34.815 54.905 34.245 54.575C33.705 54.245 33.09 53.885 32.4 53.495C31.71 53.075 30.9 52.7 29.97 52.37C29.04 52.04 27.885 51.875 26.505 51.875C24.795 51.875 23.31 52.19 22.05 52.82C20.82 53.45 19.8 54.35 18.99 55.52C18.18 56.69 17.58 58.13 17.19 59.84C16.8 61.52 16.605 63.425 16.605 65.555C16.605 70.025 17.46 73.46 19.17 75.86C20.91 78.26 23.295 79.46 26.325 79.46C27.945 79.46 29.22 79.265 30.15 78.875C31.11 78.455 31.92 78.005 32.58 77.525C33.24 77.015 33.84 76.55 34.38 76.13C34.95 75.71 35.655 75.5 36.495 75.5C37.605 75.5 38.445 75.905 39.015 76.715L43.065 81.71C41.625 83.36 40.11 84.71 38.52 85.76C36.93 86.78 35.295 87.59 33.615 88.19C31.965 88.76 30.3 89.15 28.62 89.36C26.94 89.6 25.305 89.72 23.715 89.72C20.865 89.72 18.135 89.18 15.525 88.1C12.945 87.02 10.665 85.46 8.685 83.42C6.735 81.35 5.175 78.815 4.005 75.815C2.865 72.815 2.295 69.395 2.295 65.555C2.295 62.195 2.79 59.06 3.78 56.15C4.8 53.21 6.285 50.675 8.235 48.545C10.215 46.385 12.645 44.69 15.525 43.46C18.435 42.23 21.795 41.615 25.605 41.615C29.265 41.615 32.475 42.2 35.235 43.37C37.995 44.54 40.485 46.25 42.705 48.5L39.015 53.405Z" fill="white"/>
<path d="M148.337 63.8576C148.337 67.5808 147.689 71.0211 146.393 74.1787C145.12 77.3128 143.317 80.0344 140.985 82.3437C138.652 84.6295 135.836 86.4203 132.537 87.7164C129.261 88.9888 125.621 89.6251 121.615 89.6251H101.609V38.1255H121.615C125.621 38.1255 129.261 38.7735 132.537 40.0696C135.836 41.3656 138.652 43.1565 140.985 45.4422C143.317 47.7279 145.12 50.4496 146.393 53.6072C147.689 56.7412 148.337 60.158 148.337 63.8576ZM136.107 63.8576C136.107 61.3127 135.777 59.0152 135.117 56.9651C134.457 54.915 133.503 53.183 132.254 51.7692C131.029 50.3318 129.521 49.236 127.73 48.482C125.939 47.7044 123.901 47.3156 121.615 47.3156H113.627V80.435H121.615C123.901 80.435 125.939 80.058 127.73 79.3039C129.521 78.5263 131.029 77.4306 132.254 76.0167C133.503 74.5793 134.457 72.8356 135.117 70.7855C135.777 68.7354 136.107 66.4261 136.107 63.8576Z" fill="white"/>
<path d="M168.002 48.3156V60.3333H184.19V69.1699H168.002V81.435H189.139V90.6251H155.984V39.1255H189.139V48.3156H168.002Z" fill="white"/>
<path d="M229.438 50.588C229.084 51.1536 228.707 51.5777 228.307 51.8605C227.929 52.1433 227.435 52.2846 226.822 52.2846C226.28 52.2846 225.691 52.1197 225.055 51.7898C224.442 51.4363 223.735 51.0475 222.934 50.6234C222.156 50.1992 221.261 49.8222 220.248 49.4923C219.234 49.1388 218.08 48.9621 216.784 48.9621C214.545 48.9621 212.872 49.4452 211.764 50.4113C210.68 51.3539 210.139 52.6381 210.139 54.264C210.139 55.3009 210.468 56.161 211.128 56.8443C211.788 57.5277 212.648 58.1168 213.708 58.6116C214.792 59.1065 216.018 59.566 217.385 59.9901C218.775 60.3907 220.189 60.8502 221.626 61.3686C223.063 61.8635 224.466 62.4526 225.832 63.136C227.223 63.8193 228.448 64.6912 229.508 65.7516C230.592 66.812 231.464 68.108 232.124 69.6397C232.784 71.1478 233.114 72.974 233.114 75.1183C233.114 77.4983 232.701 79.7251 231.876 81.7988C231.052 83.8724 229.85 85.6869 228.271 87.2421C226.716 88.7738 224.784 89.9873 222.474 90.8828C220.189 91.7547 217.585 92.1906 214.663 92.1906C213.06 92.1906 211.423 92.0257 209.75 91.6958C208.1 91.3659 206.498 90.9064 204.943 90.3172C203.387 89.7046 201.926 88.9859 200.56 88.1611C199.193 87.3364 198.003 86.4174 196.99 85.4041L200.524 79.8194C200.807 79.4188 201.172 79.0889 201.62 78.8297C202.091 78.5469 202.598 78.4055 203.14 78.4055C203.847 78.4055 204.554 78.6294 205.261 79.0771C205.991 79.5248 206.804 80.0197 207.7 80.5617C208.619 81.1036 209.667 81.5985 210.845 82.0462C212.024 82.4939 213.414 82.7178 215.016 82.7178C217.184 82.7178 218.869 82.2465 220.071 81.3039C221.273 80.3378 221.873 78.8179 221.873 76.7443C221.873 75.5425 221.544 74.5646 220.884 73.8105C220.224 73.0565 219.352 72.432 218.268 71.9372C217.208 71.4423 215.994 71.0064 214.627 70.6294C213.261 70.2523 211.859 69.84 210.421 69.3922C208.984 68.921 207.582 68.3554 206.215 67.6956C204.848 67.0123 203.623 66.1286 202.539 65.0447C201.479 63.9371 200.619 62.5704 199.959 60.9445C199.299 59.295 198.969 57.2685 198.969 54.8649C198.969 52.9327 199.358 51.0475 200.136 49.2095C200.913 47.3715 202.056 45.7338 203.564 44.2964C205.072 42.859 206.922 41.7161 209.113 40.8678C211.305 39.9959 213.815 39.56 216.642 39.56C218.221 39.56 219.753 39.6896 221.237 39.9488C222.745 40.1844 224.171 40.5497 225.514 41.0445C226.857 41.5158 228.106 42.0931 229.261 42.7765C230.439 43.4363 231.488 44.1903 232.407 45.0387L229.438 50.588Z" fill="white"/>
<path d="M288.58 38.3801V89.3751H282.42C281.51 89.3751 280.74 89.2351 280.11 88.9551C279.503 88.6517 278.897 88.1384 278.29 87.4151L254.245 57.0001C254.338 57.9101 254.397 58.7967 254.42 59.6601C254.467 60.5001 254.49 61.2934 254.49 62.0401V89.3751H244.06V38.3801H250.29C250.803 38.3801 251.235 38.4034 251.585 38.4501C251.935 38.4967 252.25 38.5901 252.53 38.7301C252.81 38.8467 253.078 39.0217 253.335 39.2551C253.592 39.4884 253.883 39.8034 254.21 40.2001L278.465 70.8251C278.348 69.8451 278.267 68.9001 278.22 67.9901C278.173 67.0567 278.15 66.1817 278.15 65.3651V38.3801H288.58Z" fill="white"/>
<path d="M312.21 89.3751H300.31V38.3801H312.21V89.3751Z" fill="white"/>
<path d="M344.55 63.4051C347.63 63.4051 349.847 62.6701 351.2 61.2001C352.553 59.7301 353.23 57.6767 353.23 55.0401C353.23 53.8734 353.055 52.8117 352.705 51.8551C352.355 50.8984 351.818 50.0817 351.095 49.4051C350.395 48.7051 349.497 48.1684 348.4 47.7951C347.327 47.4217 346.043 47.2351 344.55 47.2351H338.39V63.4051H344.55ZM344.55 38.3801C348.143 38.3801 351.223 38.8117 353.79 39.6751C356.38 40.5151 358.503 41.6817 360.16 43.1751C361.84 44.6684 363.077 46.4301 363.87 48.4601C364.663 50.4901 365.06 52.6834 365.06 55.0401C365.06 57.5834 364.652 59.9167 363.835 62.0401C363.018 64.1634 361.77 65.9834 360.09 67.5001C358.41 69.0167 356.275 70.2067 353.685 71.0701C351.118 71.9101 348.073 72.3301 344.55 72.3301H338.39V89.3751H326.56V38.3801H344.55Z" fill="white"/>
<path d="M460.58 47.385H446.23V89H434.4V47.385H420.05V38.005H460.58V47.385Z" fill="white"/>
</svg>
