<svg width="197" height="197" viewBox="0 0 197 197" fill="none" xmlns="http://www.w3.org/2000/svg">
<rect width="197" height="197" rx="98.5" fill="black"/>
<path d="M143.172 124.908C143.172 117.637 137.277 111.742 130.005 111.742C122.734 111.742 116.839 117.637 116.839 124.908V138.075C116.839 145.347 122.734 151.242 130.005 151.242C137.277 151.242 143.172 145.347 143.172 138.075V124.908Z" stroke="#08BD80" stroke-width="13.1667" stroke-linecap="round" stroke-linejoin="round"/>
<path d="M59.5 151.667H85.8333" stroke="#08BD80" stroke-width="13.1667" stroke-linecap="round" stroke-linejoin="round"/>
<path d="M112.167 85.833H138.5" stroke="#08BD80" stroke-width="13.1667" stroke-linecap="round" stroke-linejoin="round"/>
<path d="M59.5 112.167H72.6667V151.667" stroke="#08BD80" stroke-width="13.1667" stroke-linecap="round" stroke-linejoin="round"/>
<path d="M112.167 46.333H125.333V85.833" stroke="#08BD80" stroke-width="13.1667" stroke-linecap="round" stroke-linejoin="round"/>
<path d="M96.9613 108.485C96.9613 109.702 96.8307 110.756 96.5695 111.648C96.3083 112.54 95.9451 113.279 95.48 113.865C95.0213 114.451 94.4734 114.888 93.8363 115.174C93.2056 115.461 92.5207 115.604 91.7817 115.604C91.0427 115.604 90.3578 115.461 89.727 115.174C89.1027 114.888 88.5612 114.451 88.1025 113.865C87.6437 113.279 87.2838 112.54 87.0226 111.648C86.7677 110.756 86.6403 109.702 86.6403 108.485C86.6403 107.268 86.7677 106.214 87.0226 105.322C87.2838 104.43 87.6437 103.691 88.1025 103.105C88.5612 102.518 89.1027 102.085 89.727 101.805C90.3578 101.518 91.0427 101.375 91.7817 101.375C92.5207 101.375 93.2056 101.518 93.8363 101.805C94.4734 102.085 95.0213 102.518 95.48 103.105C95.9451 103.691 96.3083 104.43 96.5695 105.322C96.8307 106.214 96.9613 107.268 96.9613 108.485ZM93.9032 108.485C93.9032 107.523 93.8427 106.736 93.7216 106.124C93.6006 105.506 93.4381 105.022 93.2343 104.672C93.0368 104.321 92.8106 104.083 92.5558 103.955C92.3009 103.821 92.0429 103.754 91.7817 103.754C91.5205 103.754 91.2625 103.821 91.0076 103.955C90.7591 104.083 90.5362 104.321 90.3387 104.672C90.1475 105.022 89.9914 105.506 89.8704 106.124C89.7557 106.736 89.6984 107.523 89.6984 108.485C89.6984 109.453 89.7557 110.243 89.8704 110.855C89.9914 111.466 90.1475 111.951 90.3387 112.307C90.5362 112.658 90.7591 112.9 91.0076 113.034C91.2625 113.161 91.5205 113.225 91.7817 113.225C92.0429 113.225 92.3009 113.161 92.5558 113.034C92.8106 112.9 93.0368 112.658 93.2343 112.307C93.4381 111.951 93.6006 111.466 93.7216 110.855C93.8427 110.243 93.9032 109.453 93.9032 108.485Z" fill="#0EB377"/>
<path d="M112.252 108.485C112.252 109.702 112.121 110.756 111.86 111.648C111.599 112.54 111.235 113.279 110.77 113.865C110.312 114.451 109.764 114.888 109.127 115.174C108.496 115.461 107.811 115.604 107.072 115.604C106.333 115.604 105.648 115.461 105.017 115.174C104.393 114.888 103.851 114.451 103.393 113.865C102.934 113.279 102.574 112.54 102.313 111.648C102.058 110.756 101.931 109.702 101.931 108.485C101.931 107.268 102.058 106.214 102.313 105.322C102.574 104.43 102.934 103.691 103.393 103.105C103.851 102.518 104.393 102.085 105.017 101.805C105.648 101.518 106.333 101.375 107.072 101.375C107.811 101.375 108.496 101.518 109.127 101.805C109.764 102.085 110.312 102.518 110.77 103.105C111.235 103.691 111.599 104.43 111.86 105.322C112.121 106.214 112.252 107.268 112.252 108.485ZM109.194 108.485C109.194 107.523 109.133 106.736 109.012 106.124C108.891 105.506 108.728 105.022 108.525 104.672C108.327 104.321 108.101 104.083 107.846 103.955C107.591 103.821 107.333 103.754 107.072 103.754C106.811 103.754 106.553 103.821 106.298 103.955C106.049 104.083 105.826 104.321 105.629 104.672C105.438 105.022 105.282 105.506 105.161 106.124C105.046 106.736 104.989 107.523 104.989 108.485C104.989 109.453 105.046 110.243 105.161 110.855C105.282 111.466 105.438 111.951 105.629 112.307C105.826 112.658 106.049 112.9 106.298 113.034C106.553 113.161 106.811 113.225 107.072 113.225C107.333 113.225 107.591 113.161 107.846 113.034C108.101 112.9 108.327 112.658 108.525 112.307C108.728 111.951 108.891 111.466 109.012 110.855C109.133 110.243 109.194 109.453 109.194 108.485Z" fill="#0EB377"/>
<path d="M158.123 108.485C158.123 109.702 157.992 110.756 157.731 111.648C157.47 112.54 157.106 113.279 156.641 113.865C156.183 114.451 155.635 114.888 154.998 115.174C154.367 115.461 153.682 115.604 152.943 115.604C152.204 115.604 151.519 115.461 150.888 115.174C150.264 114.888 149.722 114.451 149.264 113.865C148.805 113.279 148.445 112.54 148.184 111.648C147.929 110.756 147.802 109.702 147.802 108.485C147.802 107.268 147.929 106.214 148.184 105.322C148.445 104.43 148.805 103.691 149.264 103.105C149.722 102.518 150.264 102.085 150.888 101.805C151.519 101.518 152.204 101.375 152.943 101.375C153.682 101.375 154.367 101.518 154.998 101.805C155.635 102.085 156.183 102.518 156.641 103.105C157.106 103.691 157.47 104.43 157.731 105.322C157.992 106.214 158.123 107.268 158.123 108.485ZM155.065 108.485C155.065 107.523 155.004 106.736 154.883 106.124C154.762 105.506 154.599 105.022 154.396 104.672C154.198 104.321 153.972 104.083 153.717 103.955C153.462 103.821 153.204 103.754 152.943 103.754C152.682 103.754 152.424 103.821 152.169 103.955C151.92 104.083 151.697 104.321 151.5 104.672C151.309 105.022 151.153 105.506 151.032 106.124C150.917 106.736 150.86 107.523 150.86 108.485C150.86 109.453 150.917 110.243 151.032 110.855C151.153 111.466 151.309 111.951 151.5 112.307C151.697 112.658 151.92 112.9 152.169 113.034C152.424 113.161 152.682 113.225 152.943 113.225C153.204 113.225 153.462 113.161 153.717 113.034C153.972 112.9 154.198 112.658 154.396 112.307C154.599 111.951 154.762 111.466 154.883 110.855C155.004 110.243 155.065 109.453 155.065 108.485Z" fill="#0EB377"/>
<path d="M60.0643 71.0275C62.0954 71.0275 64.0432 70.2206 65.4794 68.7845C66.9156 67.3483 67.7225 65.4004 67.7225 63.3693C67.7225 59.142 66.1908 57.2428 64.6592 54.1795C61.3754 47.6149 63.973 41.761 70.7857 35.7999C72.3174 43.4581 76.9123 50.8099 83.0388 55.7111C89.1653 60.6124 92.2286 66.4326 92.2286 72.5591C92.2286 75.375 91.6739 78.1634 90.5963 80.7649C89.5187 83.3665 87.9393 85.7303 85.9481 87.7215C83.957 89.7126 81.5931 91.2921 78.9915 92.3697C76.39 93.4473 73.6016 94.002 70.7857 94.002C67.9698 94.002 65.1815 93.4473 62.5799 92.3697C59.9783 91.2921 57.6145 89.7126 55.6233 87.7215C53.6322 85.7303 52.0527 83.3665 50.9751 80.7649C49.8975 78.1634 49.3429 75.375 49.3429 72.5591C49.3429 69.0272 50.6693 65.532 52.4061 63.3693C52.4061 65.4004 53.213 67.3483 54.6492 68.7845C56.0853 70.2206 58.0332 71.0275 60.0643 71.0275Z" stroke="#08BD80" stroke-width="6.12653" stroke-linecap="round" stroke-linejoin="round"/>
</svg>
