{
  "asset": {
    "version": "2.0",
    "generator": "THREE.GLTFExporter"
  },
  "scenes": [
    {
      "name": "AuxScene",
      "nodes": [
        5
      ]
    }
  ],
  "scene": 0,
  "nodes": [
    {
      "mesh": 0
    },
    {
      "children": [
        0
      ]
    },
    {
      "mesh": 1
    },
    {
      "children": [
        2
      ]
    },
    {
      "children": [
        1,
        3
      ]
    },
    {
      "matrix": [
        0.09333285642119063,
        0,
        0,
        0,
        0,
        -0.09333285642119063,
        0,
        0,
        0,
        0,
        0.09333285642119063,
        0,
        -3.088864598901449,
        4.025596500208817,
        0,
        1
      ],
      "extras": {
        "svgImageTarget": {
          "width": 392,
          "height": 513,
          "depth": 1,
          "scissor": {
            "x": 0,
            "y": 0,
            "z": 392,
            "w": 513
          },
          "scissorTest": false,
          "viewport": {
            "x": 0,
            "y": 0,
            "z": 392,
            "w": 513
          },
          "texture": {
            "metadata": {
              "version": 4.5,
              "type": "Texture",
              "generator": "Texture.toJSON"
            },
            "uuid": "A48907C7-AFA2-4FEB-B72F-38D0ED62014C",
            "name": "",
            "mapping": 300,
            "repeat": [
              1,
              1
            ],
            "offset": [
              0,
              0
            ],
            "center": [
              0,
              0
            ],
            "rotation": 0,
            "wrap": [
              1001,
              1001
            ],
            "format": 1023,
            "type": 1009,
            "encoding": 3000,
            "minFilter": 1003,
            "magFilter": 1006,
            "anisotropy": 1,
            "flipY": true,
            "premultiplyAlpha": false,
            "unpackAlignment": 4,
            "image": "3A7A2055-C9BA-4E45-9821-3ADCA8ED8E4D"
          },
          "depthBuffer": false,
          "stencilBuffer": false,
          "depthTexture": null,
          "_listeners": {
            "dispose": [
              null
            ]
          }
        }
      },
      "children": [
        4
      ]
    }
  ],
  "bufferViews": [
    {
      "buffer": 0,
      "byteOffset": 0,
      "byteLength": 73296,
      "target": 34962,
      "byteStride": 12
    },
    {
      "buffer": 0,
      "byteOffset": 73296,
      "byteLength": 48864,
      "target": 34962,
      "byteStride": 8
    },
    {
      "buffer": 0,
      "byteOffset": 122160,
      "byteLength": 73296,
      "target": 34962,
      "byteStride": 12
    },
    {
      "buffer": 0,
      "byteOffset": 195456,
      "byteLength": 821520,
      "target": 34962,
      "byteStride": 12
    },
    {
      "buffer": 0,
      "byteOffset": 1016976,
      "byteLength": 547680,
      "target": 34962,
      "byteStride": 8
    },
    {
      "buffer": 0,
      "byteOffset": 1564656,
      "byteLength": 821520,
      "target": 34962,
      "byteStride": 12
    },
    {
      "buffer": 0,
      "byteOffset": 2386176,
      "byteLength": 420960,
      "target": 34963
    }
  ],
  "buffers": [
    {
      "byteLength": 2807136,
      "uri": "data:application/octet-stream;base64,"
    }
  ],
  "accessors": [
    {
      "bufferView": 0,
      "componentType": 5126,
      "count": 6108,
      "max": [
        61.19029998779297,
        81.25830078125,
        13.2447509765625
      ],
      "min": [
        5,
        5,
        0
      ],
      "type": "VEC3"
    },
    {
      "bufferView": 1,
      "componentType": 5126,
      "count": 6108,
      "max": [
        0.9375000596046448,
        0.9524365663528442
      ],
      "min": [
        0.06250002235174179,
        0.047621820122003555
      ],
      "type": "VEC2"
    },
    {
      "bufferView": 2,
      "componentType": 5126,
      "count": 6108,
      "max": [
        0.9998655319213867,
        0.9998655319213867,
        1
      ],
      "min": [
        -0.9999997615814209,
        -0.9994549751281738,
        -1
      ],
      "type": "VEC3"
    },
    {
      "bufferView": 3,
      "componentType": 5126,
      "count": 68460,
      "max": [
        65.20388793945312,
        85.27189636230469,
        15.89370059967041
      ],
      "min": [
        0.9864059686660767,
        0.9913265705108643,
        0
      ],
      "type": "VEC3"
    },
    {
      "bufferView": 4,
      "componentType": 5126,
      "count": 68460,
      "max": [
        0.00021168765670154244,
        1.011762261390686
      ],
      "min": [
        -0.015360396355390549,
        0.9998970627784729
      ],
      "type": "VEC2"
    },
    {
      "bufferView": 5,
      "componentType": 5126,
      "count": 68460,
      "max": [
        0,
        0,
        1
      ],
      "min": [
        0,
        0,
        1
      ],
      "type": "VEC3"
    },
    {
      "bufferView": 6,
      "componentType": 5125,
      "count": 105240,
      "max": [
        68459
      ],
      "min": [
        0
      ],
      "type": "SCALAR"
    }
  ],
  "materials": [
    {
      "pbrMetallicRoughness": {
        "baseColorFactor": [
          0,
          0,
          0,
          1
        ],
        "metallicFactor": 0,
        "roughnessFactor": 1
      }
    },
    {
      "pbrMetallicRoughness": {
        "baseColorFactor": [
          0.03137254901960784,
          0.7411764705882353,
          0.5019607843137255,
          1
        ],
        "metallicFactor": 0.1,
        "roughnessFactor": 1
      }
    }
  ],
  "meshes": [
    {
      "primitives": [
        {
          "mode": 4,
          "attributes": {
            "POSITION": 0,
            "TEXCOORD_0": 1,
            "NORMAL": 2
          },
          "extras": {
            "isUVNormalized": true
          },
          "material": 0
        }
      ]
    },
    {
      "primitives": [
        {
          "mode": 4,
          "attributes": {
            "POSITION": 3,
            "TEXCOORD_0": 4,
            "NORMAL": 5
          },
          "extras": {
            "isUVNormalized": true
          },
          "indices": 6,
          "material": 1
        }
      ]
    }
  ]
}