<svg width="37" height="19" viewBox="0 0 37 19" fill="none" xmlns="http://www.w3.org/2000/svg">
<path d="M4.108 10.03C4.54133 10.2553 4.862 10.42 5.07 10.524C5.278 10.628 5.44267 10.7147 5.564 10.784C5.70267 10.8533 5.824 10.914 5.928 10.966C6.04933 11.018 6.22267 11.1047 6.448 11.226C6.69067 11.3473 7.02867 11.5207 7.462 11.746C7.91267 11.954 8.53667 12.2487 9.334 12.63C9.50733 12.734 9.594 12.9073 9.594 13.15C9.594 13.306 9.57667 13.54 9.542 13.852C9.50733 14.164 9.438 14.4847 9.334 14.814C9.24733 15.126 9.126 15.4033 8.97 15.646C8.814 15.8713 8.606 15.984 8.346 15.984C8.12067 15.984 7.8 15.8973 7.384 15.724C6.968 15.5507 6.5 15.3253 5.98 15.048C5.47733 14.7533 4.95733 14.4413 4.42 14.112C3.88267 13.7653 3.37133 13.4273 2.886 13.098C2.418 12.7687 2.002 12.474 1.638 12.214C1.29133 11.9367 1.05733 11.72 0.936 11.564C0.832 11.4253 0.771333 11.3127 0.754 11.226C0.736667 11.122 0.728 11.018 0.728 10.914L0.832 9.328C0.849333 9.08533 0.892667 8.90333 0.962 8.782C1.04867 8.66067 1.17867 8.53067 1.352 8.392C1.54267 8.25333 1.86333 8.054 2.314 7.794C2.76467 7.51667 3.276 7.222 3.848 6.91C4.42 6.58067 5.02667 6.25133 5.668 5.922C6.30933 5.57533 6.916 5.272 7.488 5.012C8.07733 4.73467 8.59733 4.50933 9.048 4.336C9.49867 4.16267 9.81933 4.076 10.01 4.076C10.218 4.076 10.322 4.18867 10.322 4.414C10.322 5.05533 10.296 5.57533 10.244 5.974C10.192 6.37267 10.1053 6.702 9.984 6.962C9.86267 7.20467 9.71533 7.404 9.542 7.56C9.36867 7.69867 9.16067 7.83733 8.918 7.976C8.658 8.11467 8.38067 8.25333 8.086 8.392C7.80867 8.53067 7.47933 8.678 7.098 8.834C6.734 8.99 6.30067 9.16333 5.798 9.354C5.31267 9.54467 4.74933 9.77 4.108 10.03ZM11.7705 19V15.906L17.4905 9.276L12.0045 3.348V0.435999H25.3425V3.66H19.2325C18.8858 3.66 18.4958 3.65133 18.0625 3.634C17.6465 3.61667 17.1958 3.582 16.7105 3.53L21.3645 8.678V9.666L15.9305 15.906C16.5372 15.854 17.0918 15.8193 17.5945 15.802C18.1145 15.7673 18.6692 15.75 19.2585 15.75H25.5765V19H11.7705ZM33.4051 10.03C32.9718 9.80467 32.6511 9.64 32.4431 9.536C32.2351 9.432 32.0618 9.34533 31.9231 9.276C31.8018 9.20667 31.6805 9.146 31.5591 9.094C31.4551 9.042 31.2818 8.95533 31.0391 8.834C30.8138 8.71267 30.4758 8.548 30.0251 8.34C29.5745 8.11467 28.9591 7.81133 28.1791 7.43C28.0058 7.326 27.9191 7.15267 27.9191 6.91C27.9191 6.754 27.9365 6.52 27.9711 6.208C28.0058 5.896 28.0665 5.584 28.1531 5.272C28.2571 4.94267 28.3871 4.66533 28.5431 4.44C28.6991 4.19733 28.9071 4.076 29.1671 4.076C29.3925 4.076 29.7131 4.16267 30.1291 4.336C30.5451 4.50933 31.0045 4.74333 31.5071 5.038C32.0271 5.31533 32.5558 5.62733 33.0931 5.974C33.6305 6.30333 34.1331 6.63267 34.6011 6.962C35.0865 7.29133 35.5025 7.59467 35.8491 7.872C36.2131 8.14933 36.4558 8.35733 36.5771 8.496C36.6811 8.63467 36.7418 8.756 36.7591 8.86C36.7765 8.94667 36.7851 9.042 36.7851 9.146L36.6811 10.732C36.6638 10.9747 36.6118 11.1567 36.5251 11.278C36.4558 11.3993 36.3345 11.5293 36.1611 11.668C35.9705 11.8067 35.6498 12.0147 35.1991 12.292C34.7485 12.552 34.2371 12.8467 33.6651 13.176C33.0931 13.488 32.4865 13.8173 31.8451 14.164C31.2038 14.4933 30.5885 14.7967 29.9991 15.074C29.4271 15.334 28.9158 15.5507 28.4651 15.724C28.0145 15.8973 27.6938 15.984 27.5031 15.984C27.2951 15.984 27.1911 15.8713 27.1911 15.646C27.1911 15.0047 27.2171 14.4847 27.2691 14.086C27.3211 13.6873 27.4078 13.3667 27.5291 13.124C27.6505 12.864 27.7978 12.6647 27.9711 12.526C28.1445 12.37 28.3525 12.2227 28.5951 12.084C28.8551 11.9453 29.1238 11.8067 29.4011 11.668C29.6958 11.5293 30.0251 11.382 30.3891 11.226C30.7705 11.07 31.2038 10.8967 31.6891 10.706C32.1745 10.5153 32.7465 10.29 33.4051 10.03Z" fill="#E1C01D"/>
</svg>
