<svg width="70" height="70" viewBox="0 0 70 70" fill="none" xmlns="http://www.w3.org/2000/svg">
<path d="M24.5703 41.9141C26.4869 41.9141 28.325 41.1527 29.6803 39.7975C31.0355 38.4422 31.7969 36.6041 31.7969 34.6875C31.7969 30.6984 30.3516 28.9062 28.9062 26.0156C25.8075 19.821 28.2587 14.297 34.6875 8.67188C36.1328 15.8984 40.4688 22.8359 46.25 27.4609C52.0312 32.0859 54.9219 37.5781 54.9219 43.3594C54.9219 46.0166 54.3985 48.6478 53.3816 51.1027C52.3648 53.5577 50.8743 55.7883 48.9954 57.6672C47.1164 59.5462 44.8858 61.0366 42.4309 62.0535C39.9759 63.0704 37.3447 63.5938 34.6875 63.5938C32.0303 63.5938 29.3991 63.0704 26.9441 62.0535C24.4892 61.0366 22.2586 59.5462 20.3796 57.6672C18.5007 55.7883 17.0102 53.5577 15.9934 51.1027C14.9765 48.6478 14.4531 46.0166 14.4531 43.3594C14.4531 40.0265 15.7048 36.7283 17.3438 34.6875C17.3438 36.6041 18.1051 38.4422 19.4604 39.7975C20.8156 41.1527 22.6537 41.9141 24.5703 41.9141Z" stroke="#08BD80" stroke-width="5.78125" stroke-linecap="round" stroke-linejoin="round"/>
</svg>
