<svg width="177" height="40" viewBox="0 0 177 40" fill="none" xmlns="http://www.w3.org/2000/svg">
<path d="M44.359 25.964H49.511V29H40.426V12.854H44.359V25.964ZM50.6049 22.56C50.6049 21.2413 50.8503 20.0837 51.3409 19.087C51.8469 18.0903 52.5293 17.3237 53.3879 16.787C54.2466 16.2503 55.2049 15.982 56.2629 15.982C57.1676 15.982 57.9573 16.166 58.6319 16.534C59.3219 16.902 59.8509 17.385 60.2189 17.983V16.166H64.1519V29H60.2189V27.183C59.8356 27.781 59.2989 28.264 58.6089 28.632C57.9343 29 57.1446 29.184 56.2399 29.184C55.1973 29.184 54.2466 28.9157 53.3879 28.379C52.5293 27.827 51.8469 27.0527 51.3409 26.056C50.8503 25.044 50.6049 23.8787 50.6049 22.56ZM60.2189 22.583C60.2189 21.6017 59.9429 20.8273 59.3909 20.26C58.8543 19.6927 58.1949 19.409 57.4129 19.409C56.6309 19.409 55.9639 19.6927 55.4119 20.26C54.8753 20.812 54.6069 21.5787 54.6069 22.56C54.6069 23.5413 54.8753 24.3233 55.4119 24.906C55.9639 25.4733 56.6309 25.757 57.4129 25.757C58.1949 25.757 58.8543 25.4733 59.3909 24.906C59.9429 24.3387 60.2189 23.5643 60.2189 22.583ZM79.6703 16.166V29H75.7373V27.252C75.3386 27.8193 74.7943 28.2793 74.1043 28.632C73.4296 28.9693 72.6783 29.138 71.8503 29.138C70.869 29.138 70.0026 28.9233 69.2513 28.494C68.5 28.0493 67.9173 27.413 67.5033 26.585C67.0893 25.757 66.8823 24.7833 66.8823 23.664V16.166H70.7923V23.135C70.7923 23.9937 71.0146 24.6607 71.4593 25.136C71.904 25.6113 72.502 25.849 73.2533 25.849C74.02 25.849 74.6256 25.6113 75.0703 25.136C75.515 24.6607 75.7373 23.9937 75.7373 23.135V16.166H79.6703ZM90.3153 16.028C91.818 16.028 93.014 16.5187 93.9033 17.5C94.808 18.466 95.2603 19.8 95.2603 21.502V29H91.3503V22.031C91.3503 21.1723 91.128 20.5053 90.6833 20.03C90.2387 19.5547 89.6407 19.317 88.8893 19.317C88.138 19.317 87.54 19.5547 87.0953 20.03C86.6507 20.5053 86.4283 21.1723 86.4283 22.031V29H82.4953V16.166H86.4283V17.868C86.827 17.3007 87.3637 16.856 88.0383 16.534C88.713 16.1967 89.472 16.028 90.3153 16.028ZM97.2114 22.583C97.2114 21.249 97.4797 20.0837 98.0164 19.087C98.5684 18.0903 99.3274 17.3237 100.293 16.787C101.275 16.2503 102.394 15.982 103.651 15.982C105.261 15.982 106.603 16.4037 107.676 17.247C108.765 18.0903 109.478 19.2787 109.815 20.812H105.629C105.277 19.8307 104.594 19.34 103.582 19.34C102.862 19.34 102.287 19.6237 101.857 20.191C101.428 20.743 101.213 21.5403 101.213 22.583C101.213 23.6257 101.428 24.4307 101.857 24.998C102.287 25.55 102.862 25.826 103.582 25.826C104.594 25.826 105.277 25.3353 105.629 24.354H109.815C109.478 25.8567 108.765 27.0373 107.676 27.896C106.588 28.7547 105.246 29.184 103.651 29.184C102.394 29.184 101.275 28.9157 100.293 28.379C99.3274 27.8423 98.5684 27.0757 98.0164 26.079C97.4797 25.0823 97.2114 23.917 97.2114 22.583ZM119.808 16.028C121.28 16.028 122.461 16.5187 123.35 17.5C124.239 18.466 124.684 19.8 124.684 21.502V29H120.774V22.031C120.774 21.1723 120.552 20.5053 120.107 20.03C119.662 19.5547 119.064 19.317 118.313 19.317C117.562 19.317 116.964 19.5547 116.519 20.03C116.074 20.5053 115.852 21.1723 115.852 22.031V29H111.919V11.98H115.852V17.891C116.251 17.3237 116.795 16.8713 117.485 16.534C118.175 16.1967 118.949 16.028 119.808 16.028ZM137.928 12.854V16.005H131.35V19.409H136.272V22.468H131.35V29H127.417V12.854H137.928ZM139.213 22.56C139.213 21.2413 139.459 20.0837 139.949 19.087C140.455 18.0903 141.138 17.3237 141.996 16.787C142.855 16.2503 143.813 15.982 144.871 15.982C145.776 15.982 146.566 16.166 147.24 16.534C147.93 16.902 148.459 17.385 148.827 17.983V16.166H152.76V29H148.827V27.183C148.444 27.781 147.907 28.264 147.217 28.632C146.543 29 145.753 29.184 144.848 29.184C143.806 29.184 142.855 28.9157 141.996 28.379C141.138 27.827 140.455 27.0527 139.949 26.056C139.459 25.044 139.213 23.8787 139.213 22.56ZM148.827 22.583C148.827 21.6017 148.551 20.8273 147.999 20.26C147.463 19.6927 146.803 19.409 146.021 19.409C145.239 19.409 144.572 19.6927 144.02 20.26C143.484 20.812 143.215 21.5787 143.215 22.56C143.215 23.5413 143.484 24.3233 144.02 24.906C144.572 25.4733 145.239 25.757 146.021 25.757C146.803 25.757 147.463 25.4733 147.999 24.906C148.551 24.3387 148.827 23.5643 148.827 22.583ZM160.827 29.184C159.707 29.184 158.711 28.9923 157.837 28.609C156.963 28.2257 156.273 27.7043 155.767 27.045C155.261 26.3703 154.977 25.619 154.916 24.791H158.803C158.849 25.2357 159.056 25.596 159.424 25.872C159.792 26.148 160.244 26.286 160.781 26.286C161.271 26.286 161.647 26.194 161.908 26.01C162.184 25.8107 162.322 25.5577 162.322 25.251C162.322 24.883 162.13 24.6147 161.747 24.446C161.363 24.262 160.742 24.0627 159.884 23.848C158.964 23.6333 158.197 23.411 157.584 23.181C156.97 22.9357 156.441 22.56 155.997 22.054C155.552 21.5327 155.33 20.835 155.33 19.961C155.33 19.225 155.529 18.558 155.928 17.96C156.342 17.3467 156.94 16.8637 157.722 16.511C158.519 16.1583 159.462 15.982 160.551 15.982C162.161 15.982 163.426 16.3807 164.346 17.178C165.281 17.9753 165.818 19.0333 165.956 20.352H162.322C162.26 19.9073 162.061 19.5547 161.724 19.294C161.402 19.0333 160.972 18.903 160.436 18.903C159.976 18.903 159.623 18.995 159.378 19.179C159.132 19.3477 159.01 19.5853 159.01 19.892C159.01 20.26 159.201 20.536 159.585 20.72C159.983 20.904 160.597 21.088 161.425 21.272C162.375 21.5173 163.15 21.7627 163.748 22.008C164.346 22.238 164.867 22.6213 165.312 23.158C165.772 23.6793 166.009 24.3847 166.025 25.274C166.025 26.0253 165.81 26.7 165.381 27.298C164.967 27.8807 164.361 28.3407 163.564 28.678C162.782 29.0153 161.869 29.184 160.827 29.184ZM175.584 25.665V29H173.583C172.157 29 171.045 28.655 170.248 27.965C169.451 27.2597 169.052 26.1173 169.052 24.538V19.432H167.488V16.166H169.052V13.038H172.985V16.166H175.561V19.432H172.985V24.584C172.985 24.9673 173.077 25.2433 173.261 25.412C173.445 25.5807 173.752 25.665 174.181 25.665H175.584Z" fill="#E5ECEA"/>
<path d="M27.1082 24.7516C28.4201 26.3059 29.1067 28.0043 29.0783 29.958C29.0393 32.6499 27.6565 34.6762 25.7134 36.3399C23.4491 38.2785 20.7126 39.0963 17.784 39.326C17.1426 39.3627 16.4996 39.3648 15.858 39.3324C15.5808 39.327 15.3062 39.2781 15.0441 39.1876C13.994 38.8071 13.8344 38.0291 14.6672 37.2974C15.4848 36.5793 16.367 35.9321 17.1546 35.184C17.758 34.6062 18.3046 33.9718 18.7866 33.2894C19.297 32.5711 19.3419 31.7423 19.0255 30.7873C18.5212 31.022 18.0382 31.2091 17.5942 31.4635C16.6633 31.9968 16.1382 31.9747 15.3396 31.2737C14.5636 30.5923 13.8011 29.8958 13.0291 29.2099C12.9143 29.1202 12.7942 29.0374 12.6696 28.9619C12.2013 29.3948 11.7661 29.8264 11.2995 30.2209C10.6811 30.7437 10.0678 30.7574 9.66657 30.2945C9.29049 29.8613 9.35236 29.2885 9.89577 28.7317C10.2814 28.3362 10.722 27.994 11.0476 27.7073C10.1721 26.6385 9.28965 25.7623 8.6552 24.7344C7.91378 23.5322 8.83008 22.4606 9.40266 21.2844C8.30964 21.2159 7.41078 21.4161 6.68831 21.9702C5.99882 22.5293 5.37704 23.167 4.83559 23.8704C4.31113 24.5176 3.9032 25.2588 3.43759 25.9543C2.99864 26.61 2.54895 27.2992 1.62478 27.2039C0.98496 27.138 0.0928066 25.9855 0.0336203 25.1191C-0.100513 23.1442 0.150988 21.2222 1.07315 19.4369C2.76256 16.1674 5.42393 14.0414 8.89094 12.904C10.3436 12.4275 11.807 12.5792 13.2887 13.0306C13.3708 12.936 13.4672 12.8418 13.5444 12.734C17.5456 7.14212 22.9982 3.59261 29.4559 1.48471C31.6552 0.766928 33.8801 0.113526 36.2244 0.0536691C36.8101 0.0387467 37.3959 -0.00602696 37.9813 0.000679705C38.7446 0.0092307 39.1252 0.280018 39.0944 1.02563C39.0548 2.46854 38.9197 3.90726 38.69 5.33232C37.7477 10.6914 35.1705 15.2877 31.823 19.4797C30.5201 21.1114 29.053 22.6125 27.659 24.1717C27.4942 24.3554 27.319 24.5301 27.1082 24.7516ZM14.0822 27.239C14.9541 27.9318 15.5891 28.4753 16.2716 28.9492C16.3876 29.0038 16.5144 29.0318 16.6426 29.0312C16.7708 29.0306 16.8973 29.0013 17.0127 28.9455C18.0947 28.3719 19.2011 27.8233 20.2083 27.1335C23.7955 24.6768 27.0408 21.8227 29.7688 18.4271C31.2489 16.5849 32.6032 14.642 34.0421 12.7071L25.7039 4.96395C25.4287 5.09268 25.1605 5.23602 24.9006 5.39335C23.2742 6.47262 21.6162 7.50946 20.0456 8.66502C18.2851 9.96008 16.7954 11.5427 15.4655 13.2871C13.2598 16.1798 11.9613 19.5578 10.3292 22.7569C10.1669 23.0755 10.2579 23.7171 10.488 24.002C11.0867 24.7436 11.8281 25.3702 12.6326 26.1604C13.8901 24.8569 14.9967 23.6388 16.1844 22.5042C16.8687 21.8899 17.6024 21.3329 18.378 20.839C18.7858 20.562 19.3064 20.4676 19.6794 20.893C20.0575 21.3242 19.7319 21.7465 19.4662 22.0931C19.152 22.4846 18.8117 22.8543 18.4474 23.1997C17.6929 23.9455 16.9368 24.6891 16.1595 25.4104C15.5074 26.0165 14.8243 26.5884 14.0822 27.239V27.239ZM37.514 1.63209C33.9462 1.6393 30.7972 2.96571 27.5868 4.04514L27.5294 4.26729L34.9136 10.4924C36.179 8.48713 37.1493 5.18109 37.514 1.63209V1.63209ZM19.8439 36.183C22.8482 35.6171 25.1757 34.0933 26.4835 31.3007C27.3554 29.4369 26.7464 27.6974 25.7188 26.0437C23.989 27.3642 22.3344 28.6276 20.6802 29.8906C21.9832 32.19 21.3159 34.2151 19.8439 36.183ZM12.366 14.4319C8.07072 13.7277 2.13314 19.5357 2.51827 23.523C4.27223 20.7531 6.52299 19.0843 9.91002 19.6847L12.366 14.4319Z" fill="#03DC7A"/>
<path d="M3.65669 35.9121C3.78395 35.6818 3.9206 35.2629 4.19323 34.9717C5.22136 33.874 6.28721 32.8111 7.35374 31.7503C7.66694 31.4388 8.06314 31.2423 8.47073 31.5748C8.90063 31.9255 8.71251 32.3447 8.45849 32.6917C7.58663 33.8822 6.71275 35.0726 5.79142 36.2243C5.51738 36.5391 5.16904 36.7805 4.77805 36.9265C4.19758 37.1552 3.6364 36.695 3.65669 35.9121Z" fill="#03DC7A"/>
<path d="M13.2063 31.6437C13.8245 31.6604 14.2739 32.2179 13.9989 32.6497C13.2986 33.7364 12.5293 34.7771 11.6957 35.7653C11.3971 36.1229 10.8609 36.0722 10.4816 35.73C10.3082 35.5833 10.1947 35.3779 10.1628 35.1529C10.1309 34.928 10.1827 34.6992 10.3084 34.5099C10.5359 34.131 10.8065 33.7797 11.1147 33.4629C11.5713 32.9766 12.0536 32.5129 12.5496 32.0674C12.7548 31.9059 12.9747 31.7641 13.2063 31.6437V31.6437Z" fill="#03DC7A"/>
<path d="M7.68353 26.9276C7.56551 27.1884 7.42609 27.4389 7.26671 27.6767C6.48818 28.6484 5.69769 29.6104 4.89524 30.5626C4.74446 30.725 4.56905 30.8626 4.37547 30.9704C3.97475 31.2167 3.56732 31.2163 3.24422 30.8515C2.9104 30.4746 2.98451 30.0563 3.31917 29.732C4.4147 28.67 5.52281 27.6206 6.65288 26.5956C6.8006 26.4615 7.11514 26.4397 7.33126 26.4796C7.46104 26.5036 7.55023 26.7479 7.68353 26.9276Z" fill="#03DC7A"/>
<path d="M25.3354 9.12842C26.4242 9.11349 27.2635 9.55881 28.1061 10.2605C28.9794 10.9878 29.6318 11.7636 29.9542 12.8479C30.6983 15.3559 29.2261 17.2021 26.8383 17.5397C24.9031 17.8134 23.2617 17.0165 22.0677 15.5016C21.0449 14.2035 21.0173 12.693 21.7267 11.2415C22.4419 9.77695 23.7305 9.14401 25.3354 9.12842ZM23.0372 13.1465C23.3168 13.6291 23.5175 14.2443 23.9342 14.6203C24.3657 15.0098 24.9933 15.2028 25.5594 15.4181C26.3031 15.7011 26.9468 15.4013 27.4522 14.8752C27.9412 14.3663 27.9593 13.7272 27.7204 13.0761C27.3438 12.0497 26.4654 11.5346 25.5833 11.07C24.7913 10.6528 24.0396 10.9023 23.5881 11.6835C23.3579 12.081 23.255 12.5522 23.0372 13.1465Z" fill="#03DC7A"/>
</svg>
