<svg width="37" height="19" viewBox="0 0 37 19" fill="none" xmlns="http://www.w3.org/2000/svg">
<path d="M4.108 10.03C4.54133 10.2553 4.862 10.42 5.07 10.524C5.278 10.628 5.44267 10.7147 5.564 10.784C5.70267 10.8533 5.824 10.914 5.928 10.966C6.04933 11.018 6.22267 11.1047 6.448 11.226C6.69067 11.3473 7.02867 11.5207 7.462 11.746C7.91267 11.954 8.53667 12.2487 9.334 12.63C9.50733 12.734 9.594 12.9073 9.594 13.15C9.594 13.306 9.57667 13.54 9.542 13.852C9.50733 14.164 9.438 14.4847 9.334 14.814C9.24733 15.126 9.126 15.4033 8.97 15.646C8.814 15.8713 8.606 15.984 8.346 15.984C8.12067 15.984 7.8 15.8973 7.384 15.724C6.968 15.5507 6.5 15.3253 5.98 15.048C5.47733 14.7533 4.95733 14.4413 4.42 14.112C3.88267 13.7653 3.37133 13.4273 2.886 13.098C2.418 12.7687 2.002 12.474 1.638 12.214C1.29133 11.9367 1.05733 11.72 0.936 11.564C0.832 11.4253 0.771333 11.3127 0.754 11.226C0.736667 11.122 0.728 11.018 0.728 10.914L0.832 9.328C0.849333 9.08533 0.892667 8.90333 0.962 8.782C1.04867 8.66067 1.17867 8.53067 1.352 8.392C1.54267 8.25333 1.86333 8.054 2.314 7.794C2.76467 7.51667 3.276 7.222 3.848 6.91C4.42 6.58067 5.02667 6.25133 5.668 5.922C6.30933 5.57533 6.916 5.272 7.488 5.012C8.07733 4.73467 8.59733 4.50933 9.048 4.336C9.49867 4.16267 9.81933 4.076 10.01 4.076C10.218 4.076 10.322 4.18867 10.322 4.414C10.322 5.05533 10.296 5.57533 10.244 5.974C10.192 6.37267 10.1053 6.702 9.984 6.962C9.86267 7.20467 9.71533 7.404 9.542 7.56C9.36867 7.69867 9.16067 7.83733 8.918 7.976C8.658 8.11467 8.38067 8.25333 8.086 8.392C7.80867 8.53067 7.47933 8.678 7.098 8.834C6.734 8.99 6.30067 9.16333 5.798 9.354C5.31267 9.54467 4.74933 9.77 4.108 10.03ZM33.2274 10.03C32.7941 9.80467 32.4734 9.64 32.2654 9.536C32.0574 9.432 31.8841 9.34533 31.7454 9.276C31.6241 9.20667 31.5027 9.146 31.3814 9.094C31.2774 9.042 31.1041 8.95533 30.8614 8.834C30.6361 8.71267 30.2981 8.548 29.8474 8.34C29.3967 8.11467 28.7814 7.81133 28.0014 7.43C27.8281 7.326 27.7414 7.15267 27.7414 6.91C27.7414 6.754 27.7587 6.52 27.7934 6.208C27.8281 5.896 27.8887 5.584 27.9754 5.272C28.0794 4.94267 28.2094 4.66533 28.3654 4.44C28.5214 4.19733 28.7294 4.076 28.9894 4.076C29.2147 4.076 29.5354 4.16267 29.9514 4.336C30.3674 4.50933 30.8267 4.74333 31.3294 5.038C31.8494 5.31533 32.3781 5.62733 32.9154 5.974C33.4527 6.30333 33.9554 6.63267 34.4234 6.962C34.9087 7.29133 35.3247 7.59467 35.6714 7.872C36.0354 8.14933 36.2781 8.35733 36.3994 8.496C36.5034 8.63467 36.5641 8.756 36.5814 8.86C36.5987 8.94667 36.6074 9.042 36.6074 9.146L36.5034 10.732C36.4861 10.9747 36.4341 11.1567 36.3474 11.278C36.2781 11.3993 36.1567 11.5293 35.9834 11.668C35.7927 11.8067 35.4721 12.0147 35.0214 12.292C34.5707 12.552 34.0594 12.8467 33.4874 13.176C32.9154 13.488 32.3087 13.8173 31.6674 14.164C31.0261 14.4933 30.4107 14.7967 29.8214 15.074C29.2494 15.334 28.7381 15.5507 28.2874 15.724C27.8367 15.8973 27.5161 15.984 27.3254 15.984C27.1174 15.984 27.0134 15.8713 27.0134 15.646C27.0134 15.0047 27.0394 14.4847 27.0914 14.086C27.1434 13.6873 27.2301 13.3667 27.3514 13.124C27.4727 12.864 27.6201 12.6647 27.7934 12.526C27.9667 12.37 28.1747 12.2227 28.4174 12.084C28.6774 11.9453 28.9461 11.8067 29.2234 11.668C29.5181 11.5293 29.8474 11.382 30.2114 11.226C30.5927 11.07 31.0261 10.8967 31.5114 10.706C31.9967 10.5153 32.5687 10.29 33.2274 10.03Z" fill="#FFFBFB"/>
<path d="M12.1345 19V17.076L18.2705 9.406L12.3945 2.386V0.435999H24.6925V2.516H18.0105C17.6292 2.516 17.1612 2.516 16.6065 2.516C16.0692 2.516 15.6618 2.50733 15.3845 2.49L20.7145 8.808V9.51L14.8125 16.92C15.4712 16.92 16.1038 16.92 16.7105 16.92C17.3345 16.9027 17.9932 16.894 18.6865 16.894H25.0045V19H12.1345Z" fill="url(#paint0_linear_2_6)"/>
<defs>
<linearGradient id="paint0_linear_2_6" x1="19" y1="-6" x2="19" y2="25" gradientUnits="userSpaceOnUse">
<stop stop-color="white"/>
<stop offset="1" stop-color="#EEEEEE"/>
</linearGradient>
</defs>
</svg>
