<svg width="3880" height="1491" viewBox="0 0 3880 1491" fill="none" xmlns="http://www.w3.org/2000/svg">
<g clip-path="url(#clip0_63_7)">
<rect width="8588.16" height="1491" transform="matrix(-1 0 0 -1 6882.16 1491)" fill="#32353D"/>
<g filter="url(#filter0_d_63_7)">
<path d="M9949 633.514L9869.68 675.58C9789.76 719.672 9632.9 800.762 9471.87 738.931C9312.63 674.059 9155.78 466.267 8994.75 401.395C8835.51 339.564 8678.65 420.654 8517.62 591.449C8358.38 760.217 8201.53 1013.62 8040.5 1098.26C7881.26 1180.87 7724.4 1099.78 7563.37 1013.62C7404.13 927.465 7247.28 846.375 7086.25 886.92C6927.01 927.465 6770.15 1099.78 6609.12 1055.69C6449.88 1013.62 6293.03 760.217 6132 718.152C5972.76 674.059 5815.9 846.375 5654.87 908.206C5495.63 973.078 5338.78 927.465 5177.75 971.558C5018.51 1013.62 4861.65 1140.33 4700.62 1076.97C4541.38 1013.62 4384.53 760.217 4223.5 738.931C4064.26 719.672 3907.4 927.465 3746.37 1055.69C3587.13 1180.87 3430.28 1226.48 3269.25 1224.96C3110.01 1226.48 2953.15 1180.87 2792.12 1055.69C2632.88 927.465 2476.03 719.672 2315 654.8C2155.76 592.969 1998.9 674.059 1837.87 738.931C1678.63 800.762 1521.78 846.375 1360.75 802.283C1201.51 760.217 1044.65 633.514 883.625 696.866C724.384 760.217 567.529 1013.62 406.5 1055.69C247.259 1099.78 90.4044 927.465 -70.6253 886.92C-229.866 846.375 -386.721 927.465 -547.75 823.569C-706.991 719.672 -863.846 420.654 -1024.88 380.109C-1184.12 339.564 -1340.97 547.356 -1424.47 654.8L-1502 760.217V2.25884e-05H-1422.68C-1342.76 2.25884e-05 -1185.91 2.25884e-05 -1024.88 2.25884e-05C-865.635 2.25884e-05 -708.78 2.25884e-05 -547.75 2.25884e-05C-388.51 2.25884e-05 -231.655 2.25884e-05 -70.6253 2.25884e-05C88.6152 2.25884e-05 245.47 2.25884e-05 406.5 2.25884e-05C565.74 2.25884e-05 722.595 2.25884e-05 883.625 2.25884e-05C1042.87 2.25884e-05 1199.72 2.25884e-05 1360.75 2.25884e-05C1519.99 2.25884e-05 1676.85 2.25884e-05 1837.87 2.25884e-05C1997.12 2.25884e-05 2153.97 2.25884e-05 2315 2.25884e-05C2474.24 2.25884e-05 2631.1 2.25884e-05 2792.12 2.25884e-05C2951.37 2.25884e-05 3108.22 2.25884e-05 3269.25 2.25884e-05C3428.49 2.25884e-05 3585.35 2.25884e-05 3746.37 2.25884e-05C3905.62 2.25884e-05 4062.47 2.25884e-05 4223.5 2.25884e-05C4382.74 2.25884e-05 4539.6 2.25884e-05 4700.62 2.25884e-05C4859.87 2.25884e-05 5016.72 2.25884e-05 5177.75 2.25884e-05C5336.99 2.25884e-05 5493.85 2.25884e-05 5654.87 2.25884e-05C5814.12 2.25884e-05 5970.97 2.25884e-05 6132 2.25884e-05C6291.24 2.25884e-05 6448.1 2.25884e-05 6609.12 2.25884e-05C6768.37 2.25884e-05 6925.22 2.25884e-05 7086.25 2.25884e-05C7245.49 2.25884e-05 7402.35 2.25884e-05 7563.37 2.25884e-05C7722.62 2.25884e-05 7879.47 2.25884e-05 8040.5 2.25884e-05C8199.74 2.25884e-05 8356.6 2.25884e-05 8517.62 2.25884e-05C8676.87 2.25884e-05 8833.72 2.25884e-05 8994.75 2.25884e-05C9153.99 2.25884e-05 9310.85 2.25884e-05 9471.87 2.25884e-05C9631.12 2.25884e-05 9787.97 2.25884e-05 9871.47 2.25884e-05H9949V633.514Z" fill="url(#paint0_linear_63_7)"/>
</g>
</g>
<defs>
<filter id="filter0_d_63_7" x="-1502" y="0" width="11510" height="1233" filterUnits="userSpaceOnUse" color-interpolation-filters="sRGB">
<feFlood flood-opacity="0" result="BackgroundImageFix"/>
<feColorMatrix in="SourceAlpha" type="matrix" values="0 0 0 0 0 0 0 0 0 0 0 0 0 0 0 0 0 0 127 0" result="hardAlpha"/>
<feOffset dx="55" dy="4"/>
<feGaussianBlur stdDeviation="2"/>
<feComposite in2="hardAlpha" operator="out"/>
<feColorMatrix type="matrix" values="0 0 0 0 0 0 0 0 0 0 0 0 0 0 0 0 0 0 0.25 0"/>
<feBlend mode="normal" in2="BackgroundImageFix" result="effect1_dropShadow_63_7"/>
<feBlend mode="normal" in="SourceGraphic" in2="effect1_dropShadow_63_7" result="shape"/>
</filter>
<linearGradient id="paint0_linear_63_7" x1="9949" y1="0" x2="9949" y2="1225" gradientUnits="userSpaceOnUse">
<stop stop-color="#F7ED2C"/>
<stop offset="1" stop-color="#F7ED2C"/>
</linearGradient>
<clipPath id="clip0_63_7">
<rect width="8588.16" height="1491" fill="white" transform="matrix(-1 0 0 -1 6882.16 1491)"/>
</clipPath>
</defs>
</svg>
