<svg width="8385" height="1233" viewBox="0 0 8385 1233" fill="none" xmlns="http://www.w3.org/2000/svg">
<g filter="url(#filter0_d_63_8)">
<path d="M11451 633.514L11371.7 675.58C11291.8 719.672 11134.9 800.762 10973.9 738.931C10814.6 674.059 10657.8 466.267 10496.7 401.395C10337.5 339.564 10180.7 420.654 10019.6 591.449C9860.38 760.217 9703.53 1013.62 9542.5 1098.26C9383.26 1180.87 9226.4 1099.78 9065.37 1013.62C8906.13 927.465 8749.28 846.375 8588.25 886.92C8429.01 927.465 8272.15 1099.78 8111.12 1055.69C7951.88 1013.62 7795.03 760.217 7634 718.152C7474.76 674.059 7317.9 846.375 7156.87 908.206C6997.63 973.078 6840.78 927.465 6679.75 971.558C6520.51 1013.62 6363.65 1140.33 6202.62 1076.97C6043.38 1013.62 5886.53 760.217 5725.5 738.931C5566.26 719.672 5409.4 927.465 5248.37 1055.69C5089.13 1180.87 4932.28 1226.48 4771.25 1224.96C4612.01 1226.48 4455.15 1180.87 4294.12 1055.69C4134.88 927.465 3978.03 719.672 3817 654.8C3657.76 592.969 3500.9 674.059 3339.87 738.931C3180.63 800.762 3023.78 846.375 2862.75 802.283C2703.51 760.217 2546.65 633.514 2385.62 696.866C2226.38 760.217 2069.53 1013.62 1908.5 1055.69C1749.26 1099.78 1592.4 927.465 1431.37 886.92C1272.13 846.375 1115.28 927.465 954.25 823.569C795.009 719.672 638.154 420.654 477.125 380.109C317.884 339.564 161.029 547.356 77.5324 654.8L-0.000366211 760.217V2.25884e-05H79.322C159.24 2.25884e-05 316.095 2.25884e-05 477.125 2.25884e-05C636.365 2.25884e-05 793.22 2.25884e-05 954.25 2.25884e-05C1113.49 2.25884e-05 1270.34 2.25884e-05 1431.37 2.25884e-05C1590.62 2.25884e-05 1747.47 2.25884e-05 1908.5 2.25884e-05C2067.74 2.25884e-05 2224.6 2.25884e-05 2385.62 2.25884e-05C2544.87 2.25884e-05 2701.72 2.25884e-05 2862.75 2.25884e-05C3021.99 2.25884e-05 3178.85 2.25884e-05 3339.87 2.25884e-05C3499.12 2.25884e-05 3655.97 2.25884e-05 3817 2.25884e-05C3976.24 2.25884e-05 4133.1 2.25884e-05 4294.12 2.25884e-05C4453.37 2.25884e-05 4610.22 2.25884e-05 4771.25 2.25884e-05C4930.49 2.25884e-05 5087.35 2.25884e-05 5248.37 2.25884e-05C5407.62 2.25884e-05 5564.47 2.25884e-05 5725.5 2.25884e-05C5884.74 2.25884e-05 6041.6 2.25884e-05 6202.62 2.25884e-05C6361.87 2.25884e-05 6518.72 2.25884e-05 6679.75 2.25884e-05C6838.99 2.25884e-05 6995.85 2.25884e-05 7156.87 2.25884e-05C7316.12 2.25884e-05 7472.97 2.25884e-05 7634 2.25884e-05C7793.24 2.25884e-05 7950.1 2.25884e-05 8111.12 2.25884e-05C8270.37 2.25884e-05 8427.22 2.25884e-05 8588.25 2.25884e-05C8747.49 2.25884e-05 8904.35 2.25884e-05 9065.37 2.25884e-05C9224.62 2.25884e-05 9381.47 2.25884e-05 9542.5 2.25884e-05C9701.74 2.25884e-05 9858.6 2.25884e-05 10019.6 2.25884e-05C10178.9 2.25884e-05 10335.7 2.25884e-05 10496.7 2.25884e-05C10656 2.25884e-05 10812.8 2.25884e-05 10973.9 2.25884e-05C11133.1 2.25884e-05 11290 2.25884e-05 11373.5 2.25884e-05H11451V633.514Z" fill="url(#paint0_linear_63_8)"/>
</g>
<defs>
<filter id="filter0_d_63_8" x="0" y="0" width="11510" height="1233" filterUnits="userSpaceOnUse" color-interpolation-filters="sRGB">
<feFlood flood-opacity="0" result="BackgroundImageFix"/>
<feColorMatrix in="SourceAlpha" type="matrix" values="0 0 0 0 0 0 0 0 0 0 0 0 0 0 0 0 0 0 127 0" result="hardAlpha"/>
<feOffset dx="55" dy="4"/>
<feGaussianBlur stdDeviation="2"/>
<feComposite in2="hardAlpha" operator="out"/>
<feColorMatrix type="matrix" values="0 0 0 0 0 0 0 0 0 0 0 0 0 0 0 0 0 0 0.25 0"/>
<feBlend mode="normal" in2="BackgroundImageFix" result="effect1_dropShadow_63_8"/>
<feBlend mode="normal" in="SourceGraphic" in2="effect1_dropShadow_63_8" result="shape"/>
</filter>
<linearGradient id="paint0_linear_63_8" x1="11451" y1="0" x2="11451" y2="1225" gradientUnits="userSpaceOnUse">
<stop stop-color="#F7ED2C"/>
<stop offset="1" stop-color="#F7ED2C"/>
</linearGradient>
</defs>
</svg>
