<svg width="720" height="720" viewBox="0 0 720 720" fill="none" xmlns="http://www.w3.org/2000/svg">
<g clip-path="url(#clip0_350_38)">
<path d="M720.001 360.001C720.126 444.979 690.067 527.241 635.183 592.119C633.19 594.486 631.16 596.819 629.092 599.132C604.758 626.499 576.412 650.015 545.022 668.877C537.822 673.199 530.464 677.273 522.949 681.097C522.189 681.483 521.417 681.869 520.657 682.243C519.748 682.704 518.826 683.152 517.904 683.601C498.886 692.91 479.076 700.507 458.71 706.301C456.592 706.901 454.47 707.482 452.345 708.045C425.554 715.133 398.033 719.1 370.33 719.866C368.885 719.903 367.465 719.928 366.095 719.953C365.609 719.966 365.136 719.978 364.662 719.978C363.105 719.99 361.562 720.003 360.003 720.003C330.81 720.025 301.722 716.499 273.379 709.503C270.539 708.805 267.711 708.07 264.896 707.298C250.067 703.249 235.516 698.244 221.335 692.313C213.861 689.199 206.52 685.839 199.311 682.235C197.679 681.413 196.047 680.591 194.44 679.744C193.755 679.408 193.082 679.044 192.41 678.698C153.991 658.419 119.538 631.388 90.7011 598.898C88.7081 596.668 86.7521 594.398 84.8211 592.122C53.0474 554.449 29.3463 510.655 15.1857 463.45C1.02518 416.246 -3.29332 366.637 2.49766 317.696C8.28864 268.754 24.0658 221.523 48.852 178.927C73.6382 136.331 106.906 99.2773 146.594 70.0606C148.637 68.5536 150.694 67.0606 152.773 65.6006L154.006 64.7416C190.558 39.138 231.585 20.6106 274.961 10.1186C277.427 9.50864 279.894 8.93564 282.385 8.39964C329.369 -1.87633 377.925 -2.72608 425.239 5.89964C427.718 6.36064 430.197 6.83364 432.663 7.34464C475.652 16.1621 516.652 32.8115 553.618 56.4616C554.44 56.9846 555.262 57.5076 556.084 58.0556C557.741 59.1266 559.397 60.2226 561.029 61.3316C609.996 94.2521 650.111 138.716 677.835 190.802C705.558 242.888 720.04 300.996 720.001 360.001Z" fill="#F2F2F2"/>
<path d="M269.067 546.24L154.004 556.455L152.771 556.567V65.598L154.004 64.739C177.984 47.9658 203.924 34.1863 231.248 23.707L237.131 104.799L237.667 112.223L243.484 192.644L245.278 217.383L268.855 543.376L269.067 546.24Z" fill="#D6D6E3"/>
<path d="M553.616 56.4529C554.438 56.9759 555.26 57.4989 556.082 58.0469V556.566L553.616 556.342L439.799 546.242L440.011 543.377L463.592 217.385L465.386 192.646L471.203 112.225L471.739 104.796L477.905 19.7539C504.496 28.9719 529.908 41.2901 553.617 56.4539L553.616 56.4529Z" fill="#D6D6E3"/>
<path d="M553.612 56.4551V563.368C553.612 573.097 546.912 581.007 538.664 581.007H168.952C162.126 581.007 156.333 575.576 154.577 568.164C154.193 566.593 154.001 564.981 154.004 563.364V64.7351L152.771 65.5941C150.691 67.0511 148.635 68.5461 146.592 70.0541V563.368C146.482 570.758 149.242 577.903 154.292 583.299C156.94 586.071 160.289 588.075 163.983 589.099C165.603 589.54 167.274 589.762 168.953 589.759H538.668C540.351 589.761 542.027 589.539 543.651 589.099C553.591 586.421 561.028 575.907 561.028 563.363V61.3261C559.396 60.2171 557.739 59.1261 556.083 58.0501C555.26 57.5011 554.438 56.9781 553.612 56.4551Z" fill="#D6D6E3"/>
<path d="M557.325 104.803H150.299V112.226H557.325V104.803Z" fill="#D6D6E3"/>
<path d="M274.959 10.1155C277.425 9.50548 279.892 8.93248 282.383 8.39648V209.956H274.959V10.1155Z" fill="#D6D6E3"/>
<path d="M425.237 5.89258C427.716 6.35358 430.195 6.82659 432.661 7.33759V209.963H425.237V5.89258Z" fill="#D6D6E3"/>
<path d="M603.717 543.375H116.273C107.413 543.375 98.9149 546.895 92.6495 553.16C86.3841 559.426 82.8643 567.923 82.8643 576.784C82.8643 585.645 86.3841 594.142 92.6495 600.408C98.9149 606.673 107.413 610.193 116.273 610.193H603.717C608.463 610.194 613.154 609.182 617.477 607.224C621.8 605.266 625.656 602.408 628.785 598.84C630.2 597.23 631.458 595.489 632.542 593.64C633.383 592.221 634.112 590.738 634.722 589.206C636.757 584.138 637.518 578.648 636.937 573.218C636.357 567.788 634.453 562.582 631.393 558.059C628.334 553.535 624.211 549.832 619.386 547.272C614.562 544.712 609.184 543.375 603.722 543.378L603.717 543.375Z" fill="#D6D6E3"/>
<path d="M557.325 192.643H152.773V217.386H557.325V192.643Z" fill="#D6D6E3"/>
<path d="M351.337 185.219H358.76C360.547 185.219 362.317 185.571 363.968 186.255C365.619 186.939 367.12 187.941 368.383 189.205C369.647 190.469 370.65 191.969 371.333 193.62C372.017 195.272 372.369 197.042 372.369 198.829H337.728C337.728 195.219 339.162 191.758 341.714 189.206C344.266 186.654 347.728 185.219 351.337 185.219Z" fill="#D6D6E3"/>
<path d="M635.182 592.117C624.36 604.939 612.656 616.988 600.154 628.177H119.848C107.346 616.988 95.6413 604.939 84.8198 592.117H635.182Z" fill="#3F3D56"/>
<path d="M400.211 467.215H319.342C318.906 467.211 318.473 467.278 318.059 467.415C317.182 467.687 316.414 468.233 315.87 468.973C315.325 469.713 315.031 470.607 315.032 471.526V599.281H404.532V471.525C404.532 470.958 404.419 470.397 404.202 469.873C403.984 469.35 403.666 468.875 403.264 468.474C402.863 468.074 402.387 467.757 401.863 467.541C401.339 467.325 400.778 467.214 400.211 467.215ZM369.605 530.245C369.608 532.317 368.925 534.332 367.662 535.975C366.457 537.569 364.782 538.746 362.873 539.337C360.964 539.929 358.918 539.907 357.022 539.275C355.126 538.642 353.477 537.43 352.306 535.81C351.136 534.19 350.503 532.244 350.497 530.245V515.422C350.497 512.888 351.504 510.458 353.296 508.666C355.087 506.874 357.518 505.868 360.052 505.868C362.586 505.868 365.016 506.874 366.808 508.666C368.6 510.458 369.606 512.888 369.606 515.422L369.605 530.245Z" fill="#2F2E41"/>
<path d="M314.758 595.195V607.515C314.758 608.153 315.01 608.766 315.459 609.219C315.909 609.672 316.52 609.928 317.158 609.932H402.399C403.036 609.926 403.646 609.669 404.095 609.216C404.544 608.764 404.797 608.153 404.799 607.515V595.195H314.758Z" fill="#3F3D56"/>
<path d="M534.121 267.844H188.447C185.477 267.847 182.629 269.028 180.527 271.128C178.426 273.227 177.242 276.073 177.236 279.044V512.307C177.238 515.279 178.42 518.13 180.522 520.231C182.624 522.333 185.474 523.515 188.447 523.518H534.121C537.093 523.515 539.944 522.333 542.046 520.231C544.148 518.13 545.329 515.279 545.332 512.307V279.043C545.325 276.073 544.141 273.226 542.04 271.127C539.939 269.028 537.091 267.847 534.121 267.844Z" fill="#3F3D56"/>
<path d="M531.231 275.941H191.325C189.735 275.944 188.211 276.577 187.088 277.702C185.964 278.827 185.333 280.351 185.333 281.941V509.43C185.335 511.019 185.967 512.541 187.091 513.664C188.214 514.787 189.737 515.419 191.325 515.421H531.231C532.82 515.419 534.342 514.787 535.466 513.664C536.589 512.541 537.221 511.018 537.223 509.429V281.945C537.223 280.356 536.592 278.831 535.469 277.706C534.346 276.581 532.822 275.948 531.232 275.945L531.231 275.941Z" fill="#08BD80"/>
<path d="M468.673 609.729L465.534 594.818C465.403 594.211 465.123 593.645 464.718 593.174C464.314 592.702 463.798 592.339 463.217 592.118C462.797 591.953 462.349 591.869 461.897 591.869H265.94C265.488 591.869 265.04 591.953 264.62 592.118C264.039 592.339 263.523 592.702 263.119 593.174C262.714 593.645 262.434 594.211 262.303 594.818L259.164 609.729C259.051 610.27 259.059 610.83 259.189 611.367C259.319 611.905 259.568 612.407 259.916 612.836C260.264 613.266 260.704 613.612 261.203 613.85C261.702 614.088 262.248 614.212 262.801 614.213H465.023C465.578 614.216 466.126 614.093 466.627 613.853C467.127 613.614 467.567 613.264 467.913 612.83C468.262 612.402 468.511 611.902 468.643 611.366C468.774 610.83 468.784 610.27 468.673 609.729Z" fill="#2F2E41"/>
<path d="M273.117 594.555H267.865C267.595 594.555 267.377 594.773 267.377 595.043V597.804C267.377 598.073 267.595 598.292 267.865 598.292H273.117C273.386 598.292 273.605 598.073 273.605 597.804V595.043C273.605 594.773 273.386 594.555 273.117 594.555Z" fill="#3F3D56"/>
<path d="M285.573 594.555H280.321C280.051 594.555 279.833 594.773 279.833 595.043V597.804C279.833 598.073 280.051 598.292 280.321 598.292H285.573C285.843 598.292 286.061 598.073 286.061 597.804V595.043C286.061 594.773 285.843 594.555 285.573 594.555Z" fill="#3F3D56"/>
<path d="M298.03 594.555H292.778C292.509 594.555 292.29 594.773 292.29 595.043V597.804C292.29 598.073 292.509 598.292 292.778 598.292H298.03C298.3 598.292 298.518 598.073 298.518 597.804V595.043C298.518 594.773 298.3 594.555 298.03 594.555Z" fill="#3F3D56"/>
<path d="M310.487 594.555H305.235C304.966 594.555 304.747 594.773 304.747 595.043V597.804C304.747 598.073 304.966 598.292 305.235 598.292H310.487C310.757 598.292 310.975 598.073 310.975 597.804V595.043C310.975 594.773 310.757 594.555 310.487 594.555Z" fill="#3F3D56"/>
<path d="M322.943 594.555H317.691C317.422 594.555 317.203 594.773 317.203 595.043V597.804C317.203 598.073 317.422 598.292 317.691 598.292H322.943C323.213 598.292 323.431 598.073 323.431 597.804V595.043C323.431 594.773 323.213 594.555 322.943 594.555Z" fill="#3F3D56"/>
<path d="M335.4 594.555H330.148C329.879 594.555 329.66 594.773 329.66 595.043V597.804C329.66 598.073 329.879 598.292 330.148 598.292H335.4C335.67 598.292 335.888 598.073 335.888 597.804V595.043C335.888 594.773 335.67 594.555 335.4 594.555Z" fill="#3F3D56"/>
<path d="M347.857 594.555H342.605C342.336 594.555 342.117 594.773 342.117 595.043V597.804C342.117 598.073 342.336 598.292 342.605 598.292H347.857C348.127 598.292 348.345 598.073 348.345 597.804V595.043C348.345 594.773 348.127 594.555 347.857 594.555Z" fill="#3F3D56"/>
<path d="M360.314 594.555H355.062C354.793 594.555 354.574 594.773 354.574 595.043V597.804C354.574 598.073 354.793 598.292 355.062 598.292H360.314C360.584 598.292 360.802 598.073 360.802 597.804V595.043C360.802 594.773 360.584 594.555 360.314 594.555Z" fill="#3F3D56"/>
<path d="M372.77 594.555H367.518C367.249 594.555 367.03 594.773 367.03 595.043V597.804C367.03 598.073 367.249 598.292 367.518 598.292H372.77C373.04 598.292 373.258 598.073 373.258 597.804V595.043C373.258 594.773 373.04 594.555 372.77 594.555Z" fill="#3F3D56"/>
<path d="M385.227 594.555H379.975C379.705 594.555 379.487 594.773 379.487 595.043V597.804C379.487 598.073 379.705 598.292 379.975 598.292H385.227C385.496 598.292 385.715 598.073 385.715 597.804V595.043C385.715 594.773 385.496 594.555 385.227 594.555Z" fill="#3F3D56"/>
<path d="M397.684 594.555H392.432C392.162 594.555 391.944 594.773 391.944 595.043V597.804C391.944 598.073 392.162 598.292 392.432 598.292H397.684C397.953 598.292 398.172 598.073 398.172 597.804V595.043C398.172 594.773 397.953 594.555 397.684 594.555Z" fill="#3F3D56"/>
<path d="M410.14 594.555H404.888C404.618 594.555 404.4 594.773 404.4 595.043V597.804C404.4 598.073 404.618 598.292 404.888 598.292H410.14C410.409 598.292 410.628 598.073 410.628 597.804V595.043C410.628 594.773 410.409 594.555 410.14 594.555Z" fill="#3F3D56"/>
<path d="M422.597 594.555H417.345C417.075 594.555 416.857 594.773 416.857 595.043V597.804C416.857 598.073 417.075 598.292 417.345 598.292H422.597C422.866 598.292 423.085 598.073 423.085 597.804V595.043C423.085 594.773 422.866 594.555 422.597 594.555Z" fill="#3F3D56"/>
<path d="M435.054 594.555H429.802C429.532 594.555 429.314 594.773 429.314 595.043V597.804C429.314 598.073 429.532 598.292 429.802 598.292H435.054C435.323 598.292 435.542 598.073 435.542 597.804V595.043C435.542 594.773 435.323 594.555 435.054 594.555Z" fill="#3F3D56"/>
<path d="M447.511 594.555H442.259C441.989 594.555 441.771 594.773 441.771 595.043V597.804C441.771 598.073 441.989 598.292 442.259 598.292H447.511C447.781 598.292 447.999 598.073 447.999 597.804V595.043C447.999 594.773 447.781 594.555 447.511 594.555Z" fill="#3F3D56"/>
<path d="M459.967 594.555H454.715C454.446 594.555 454.227 594.773 454.227 595.043V597.804C454.227 598.073 454.446 598.292 454.715 598.292H459.967C460.237 598.292 460.455 598.073 460.455 597.804V595.043C460.455 594.773 460.237 594.555 459.967 594.555Z" fill="#3F3D56"/>
<path d="M272.969 600.783H267.717C267.447 600.783 267.229 601.002 267.229 601.271V604.032C267.229 604.302 267.447 604.52 267.717 604.52H272.969C273.239 604.52 273.457 604.302 273.457 604.032V601.271C273.457 601.002 273.239 600.783 272.969 600.783Z" fill="#3F3D56"/>
<path d="M285.426 600.783H280.174C279.905 600.783 279.686 601.002 279.686 601.271V604.032C279.686 604.302 279.905 604.52 280.174 604.52H285.426C285.696 604.52 285.914 604.302 285.914 604.032V601.271C285.914 601.002 285.696 600.783 285.426 600.783Z" fill="#3F3D56"/>
<path d="M297.883 600.783H292.631C292.362 600.783 292.143 601.002 292.143 601.271V604.032C292.143 604.302 292.362 604.52 292.631 604.52H297.883C298.153 604.52 298.371 604.302 298.371 604.032V601.271C298.371 601.002 298.153 600.783 297.883 600.783Z" fill="#3F3D56"/>
<path d="M310.34 600.783H305.088C304.819 600.783 304.6 601.002 304.6 601.271V604.032C304.6 604.302 304.819 604.52 305.088 604.52H310.34C310.61 604.52 310.828 604.302 310.828 604.032V601.271C310.828 601.002 310.61 600.783 310.34 600.783Z" fill="#3F3D56"/>
<path d="M322.796 600.783H317.544C317.275 600.783 317.056 601.002 317.056 601.271V604.032C317.056 604.302 317.275 604.52 317.544 604.52H322.796C323.066 604.52 323.284 604.302 323.284 604.032V601.271C323.284 601.002 323.066 600.783 322.796 600.783Z" fill="#3F3D56"/>
<path d="M335.253 600.783H330.001C329.732 600.783 329.513 601.002 329.513 601.271V604.032C329.513 604.302 329.732 604.52 330.001 604.52H335.253C335.523 604.52 335.741 604.302 335.741 604.032V601.271C335.741 601.002 335.523 600.783 335.253 600.783Z" fill="#3F3D56"/>
<path d="M347.71 600.783H342.458C342.189 600.783 341.97 601.002 341.97 601.271V604.032C341.97 604.302 342.189 604.52 342.458 604.52H347.71C347.98 604.52 348.198 604.302 348.198 604.032V601.271C348.198 601.002 347.98 600.783 347.71 600.783Z" fill="#3F3D56"/>
<path d="M360.166 600.783H354.914C354.645 600.783 354.426 601.002 354.426 601.271V604.032C354.426 604.302 354.645 604.52 354.914 604.52H360.166C360.436 604.52 360.654 604.302 360.654 604.032V601.271C360.654 601.002 360.436 600.783 360.166 600.783Z" fill="#3F3D56"/>
<path d="M372.623 600.783H367.371C367.101 600.783 366.883 601.002 366.883 601.271V604.032C366.883 604.302 367.101 604.52 367.371 604.52H372.623C372.892 604.52 373.111 604.302 373.111 604.032V601.271C373.111 601.002 372.892 600.783 372.623 600.783Z" fill="#3F3D56"/>
<path d="M385.08 600.783H379.828C379.558 600.783 379.34 601.002 379.34 601.271V604.032C379.34 604.302 379.558 604.52 379.828 604.52H385.08C385.349 604.52 385.568 604.302 385.568 604.032V601.271C385.568 601.002 385.349 600.783 385.08 600.783Z" fill="#3F3D56"/>
<path d="M397.536 600.783H392.284C392.014 600.783 391.796 601.002 391.796 601.271V604.032C391.796 604.302 392.014 604.52 392.284 604.52H397.536C397.805 604.52 398.024 604.302 398.024 604.032V601.271C398.024 601.002 397.805 600.783 397.536 600.783Z" fill="#3F3D56"/>
<path d="M409.993 600.783H404.741C404.471 600.783 404.253 601.002 404.253 601.271V604.032C404.253 604.302 404.471 604.52 404.741 604.52H409.993C410.262 604.52 410.481 604.302 410.481 604.032V601.271C410.481 601.002 410.262 600.783 409.993 600.783Z" fill="#3F3D56"/>
<path d="M422.45 600.783H417.198C416.928 600.783 416.71 601.002 416.71 601.271V604.032C416.71 604.302 416.928 604.52 417.198 604.52H422.45C422.719 604.52 422.938 604.302 422.938 604.032V601.271C422.938 601.002 422.719 600.783 422.45 600.783Z" fill="#3F3D56"/>
<path d="M434.907 600.783H429.655C429.385 600.783 429.167 601.002 429.167 601.271V604.032C429.167 604.302 429.385 604.52 429.655 604.52H434.907C435.177 604.52 435.395 604.302 435.395 604.032V601.271C435.395 601.002 435.177 600.783 434.907 600.783Z" fill="#3F3D56"/>
<path d="M447.363 600.783H442.111C441.842 600.783 441.623 601.002 441.623 601.271V604.032C441.623 604.302 441.842 604.52 442.111 604.52H447.363C447.633 604.52 447.851 604.302 447.851 604.032V601.271C447.851 601.002 447.633 600.783 447.363 600.783Z" fill="#3F3D56"/>
<path d="M459.82 600.783H454.568C454.299 600.783 454.08 601.002 454.08 601.271V604.032C454.08 604.302 454.299 604.52 454.568 604.52H459.82C460.09 604.52 460.308 604.302 460.308 604.032V601.271C460.308 601.002 460.09 600.783 459.82 600.783Z" fill="#3F3D56"/>
<path d="M376.361 608.256H327.51C327.24 608.256 327.022 608.474 327.022 608.744V611.505C327.022 611.774 327.24 611.993 327.51 611.993H376.361C376.63 611.993 376.849 611.774 376.849 611.505V608.744C376.849 608.474 376.63 608.256 376.361 608.256Z" fill="#3F3D56"/>
<path d="M514.15 307.278H196.101C195.765 307.278 195.444 307.145 195.206 306.908C194.969 306.67 194.836 306.349 194.836 306.013C194.836 305.678 194.969 305.356 195.206 305.119C195.444 304.881 195.765 304.748 196.101 304.748H514.15C514.485 304.748 514.807 304.881 515.044 305.119C515.282 305.356 515.415 305.678 515.415 306.013C515.415 306.349 515.282 306.67 515.044 306.908C514.807 307.145 514.485 307.278 514.15 307.278Z" fill="#3F3D56"/>
<path d="M217.751 298.291C221.844 298.291 225.163 294.898 225.163 290.714C225.163 286.529 221.844 283.137 217.751 283.137C213.657 283.137 210.339 286.529 210.339 290.714C210.339 294.898 213.657 298.291 217.751 298.291Z" fill="#3F3D56"/>
<path d="M243.357 298.291C247.45 298.291 250.769 294.898 250.769 290.714C250.769 286.529 247.45 283.137 243.357 283.137C239.263 283.137 235.945 286.529 235.945 290.714C235.945 294.898 239.263 298.291 243.357 298.291Z" fill="#3F3D56"/>
<path d="M268.963 298.291C273.056 298.291 276.375 294.898 276.375 290.714C276.375 286.529 273.056 283.137 268.963 283.137C264.869 283.137 261.551 286.529 261.551 290.714C261.551 294.898 264.869 298.291 268.963 298.291Z" fill="#3F3D56"/>
<path d="M498.731 285.01H480.544C480.185 285.02 479.845 285.169 479.594 285.426C479.344 285.683 479.204 286.028 479.204 286.387C479.204 286.746 479.344 287.09 479.594 287.347C479.845 287.604 480.185 287.754 480.544 287.763H498.731C498.915 287.768 499.098 287.736 499.269 287.669C499.441 287.602 499.597 287.502 499.729 287.373C499.86 287.245 499.965 287.092 500.037 286.922C500.108 286.753 500.145 286.571 500.145 286.387C500.145 286.203 500.108 286.021 500.037 285.851C499.965 285.682 499.86 285.528 499.729 285.4C499.597 285.272 499.441 285.171 499.269 285.104C499.098 285.037 498.915 285.005 498.731 285.01Z" fill="#3F3D56"/>
<path d="M498.731 290.18H480.544C480.185 290.189 479.845 290.339 479.594 290.596C479.344 290.853 479.204 291.197 479.204 291.556C479.204 291.915 479.344 292.26 479.594 292.517C479.845 292.774 480.185 292.923 480.544 292.933H498.731C499.096 292.933 499.446 292.788 499.704 292.53C499.962 292.271 500.107 291.921 500.107 291.556C500.107 291.191 499.962 290.841 499.704 290.583C499.446 290.325 499.096 290.18 498.731 290.18Z" fill="#3F3D56"/>
<path d="M498.731 295.35H480.544C480.185 295.36 479.845 295.509 479.594 295.766C479.344 296.023 479.204 296.368 479.204 296.727C479.204 297.085 479.344 297.43 479.594 297.687C479.845 297.944 480.185 298.093 480.544 298.103H498.731C498.915 298.108 499.098 298.076 499.269 298.009C499.441 297.942 499.597 297.842 499.729 297.713C499.86 297.585 499.965 297.432 500.037 297.262C500.108 297.093 500.145 296.911 500.145 296.727C500.145 296.543 500.108 296.361 500.037 296.191C499.965 296.022 499.86 295.868 499.729 295.74C499.597 295.612 499.441 295.511 499.269 295.444C499.098 295.377 498.915 295.345 498.731 295.35Z" fill="#3F3D56"/>
<path d="M224.233 336.672H216.283C214.692 336.672 213.403 337.961 213.403 339.552V340.967C213.403 342.557 214.692 343.847 216.283 343.847H224.233C225.823 343.847 227.113 342.557 227.113 340.967V339.552C227.113 337.961 225.823 336.672 224.233 336.672Z" fill="#E6E6E6"/>
<path d="M298.973 336.672H291.023C289.432 336.672 288.143 337.961 288.143 339.552V340.967C288.143 342.557 289.432 343.847 291.023 343.847H298.973C300.564 343.847 301.853 342.557 301.853 340.967V339.552C301.853 337.961 300.564 336.672 298.973 336.672Z" fill="#E6E6E6"/>
<path d="M320.149 336.672H312.199C310.608 336.672 309.319 337.961 309.319 339.552V340.967C309.319 342.557 310.608 343.847 312.199 343.847H320.149C321.739 343.847 323.029 342.557 323.029 340.967V339.552C323.029 337.961 321.739 336.672 320.149 336.672Z" fill="#E6E6E6"/>
<path d="M278.644 336.074H236.613C235.022 336.074 233.733 337.364 233.733 338.954V340.369C233.733 341.96 235.022 343.249 236.613 343.249H278.644C280.234 343.249 281.524 341.96 281.524 340.369V338.954C281.524 337.364 280.234 336.074 278.644 336.074Z" fill="#E6E6E6"/>
<path d="M378.297 336.074H336.266C334.676 336.074 333.386 337.364 333.386 338.954V340.369C333.386 341.96 334.676 343.249 336.266 343.249H378.297C379.888 343.249 381.177 341.96 381.177 340.369V338.954C381.177 337.364 379.888 336.074 378.297 336.074Z" fill="#E6E6E6"/>
<path d="M244.163 352.867H236.213C234.622 352.867 233.333 354.157 233.333 355.747V357.162C233.333 358.753 234.622 360.042 236.213 360.042H244.163C245.754 360.042 247.043 358.753 247.043 357.162V355.747C247.043 354.157 245.754 352.867 244.163 352.867Z" fill="#E6E6E6"/>
<path d="M318.904 352.867H310.954C309.364 352.867 308.074 354.157 308.074 355.747V357.162C308.074 358.753 309.364 360.042 310.954 360.042H318.904C320.495 360.042 321.784 358.753 321.784 357.162V355.747C321.784 354.157 320.495 352.867 318.904 352.867Z" fill="#E6E6E6"/>
<path d="M340.08 352.867H332.13C330.539 352.867 329.25 354.157 329.25 355.747V357.162C329.25 358.753 330.539 360.042 332.13 360.042H340.08C341.671 360.042 342.96 358.753 342.96 357.162V355.747C342.96 354.157 341.671 352.867 340.08 352.867Z" fill="#E6E6E6"/>
<path d="M298.574 352.268H256.543C254.953 352.268 253.663 353.557 253.663 355.148V356.563C253.663 358.153 254.953 359.443 256.543 359.443H298.574C300.165 359.443 301.454 358.153 301.454 356.563V355.148C301.454 353.557 300.165 352.268 298.574 352.268Z" fill="#E6E6E6"/>
<path d="M398.228 352.268H356.197C354.606 352.268 353.317 353.557 353.317 355.148V356.563C353.317 358.153 354.606 359.443 356.197 359.443H398.228C399.818 359.443 401.108 358.153 401.108 356.563V355.148C401.108 353.557 399.818 352.268 398.228 352.268Z" fill="#E6E6E6"/>
<path d="M264.094 369.061H256.144C254.554 369.061 253.264 370.35 253.264 371.941V373.356C253.264 374.946 254.554 376.236 256.144 376.236H264.094C265.685 376.236 266.974 374.946 266.974 373.356V371.941C266.974 370.35 265.685 369.061 264.094 369.061Z" fill="#E6E6E6"/>
<path d="M338.834 369.061H330.884C329.293 369.061 328.004 370.35 328.004 371.941V373.356C328.004 374.946 329.293 376.236 330.884 376.236H338.834C340.424 376.236 341.714 374.946 341.714 373.356V371.941C341.714 370.35 340.424 369.061 338.834 369.061Z" fill="#E6E6E6"/>
<path d="M360.011 369.061H352.061C350.471 369.061 349.181 370.35 349.181 371.941V373.356C349.181 374.946 350.471 376.236 352.061 376.236H360.011C361.602 376.236 362.891 374.946 362.891 373.356V371.941C362.891 370.35 361.602 369.061 360.011 369.061Z" fill="#E6E6E6"/>
<path d="M318.505 368.461H276.474C274.884 368.461 273.594 369.75 273.594 371.341V372.756C273.594 374.347 274.884 375.636 276.474 375.636H318.505C320.096 375.636 321.385 374.347 321.385 372.756V371.341C321.385 369.75 320.096 368.461 318.505 368.461Z" fill="#E6E6E6"/>
<path d="M418.159 368.461H376.128C374.537 368.461 373.248 369.75 373.248 371.341V372.756C373.248 374.347 374.537 375.636 376.128 375.636H418.159C419.75 375.636 421.039 374.347 421.039 372.756V371.341C421.039 369.75 419.75 368.461 418.159 368.461Z" fill="#E6E6E6"/>
<path d="M284.025 385.254H276.075C274.484 385.254 273.195 386.543 273.195 388.134V389.549C273.195 391.139 274.484 392.429 276.075 392.429H284.025C285.615 392.429 286.905 391.139 286.905 389.549V388.134C286.905 386.543 285.615 385.254 284.025 385.254Z" fill="#E6E6E6"/>
<path d="M358.765 385.254H350.815C349.224 385.254 347.935 386.543 347.935 388.134V389.549C347.935 391.139 349.224 392.429 350.815 392.429H358.765C360.356 392.429 361.645 391.139 361.645 389.549V388.134C361.645 386.543 360.356 385.254 358.765 385.254Z" fill="#E6E6E6"/>
<path d="M379.942 385.254H371.992C370.401 385.254 369.112 386.543 369.112 388.134V389.549C369.112 391.139 370.401 392.429 371.992 392.429H379.942C381.532 392.429 382.822 391.139 382.822 389.549V388.134C382.822 386.543 381.532 385.254 379.942 385.254Z" fill="#E6E6E6"/>
<path d="M338.436 384.656H296.405C294.814 384.656 293.525 385.946 293.525 387.536V388.951C293.525 390.542 294.814 391.831 296.405 391.831H338.436C340.026 391.831 341.316 390.542 341.316 388.951V387.536C341.316 385.946 340.026 384.656 338.436 384.656Z" fill="#E6E6E6"/>
<path d="M298.973 449.646H291.023C289.432 449.646 288.143 450.936 288.143 452.526V453.941C288.143 455.532 289.432 456.821 291.023 456.821H298.973C300.564 456.821 301.853 455.532 301.853 453.941V452.526C301.853 450.936 300.564 449.646 298.973 449.646Z" fill="#E6E6E6"/>
<path d="M320.149 449.646H312.199C310.608 449.646 309.319 450.936 309.319 452.526V453.941C309.319 455.532 310.608 456.821 312.199 456.821H320.149C321.739 456.821 323.029 455.532 323.029 453.941V452.526C323.029 450.936 321.739 449.646 320.149 449.646Z" fill="#E6E6E6"/>
<path d="M378.297 450.244H336.266C334.676 450.244 333.386 451.534 333.386 453.124V454.539C333.386 456.13 334.676 457.419 336.266 457.419H378.297C379.888 457.419 381.177 456.13 381.177 454.539V453.124C381.177 451.534 379.888 450.244 378.297 450.244Z" fill="#E6E6E6"/>
<path d="M224.233 449.646H216.283C214.692 449.646 213.403 450.936 213.403 452.526V453.941C213.403 455.532 214.692 456.821 216.283 456.821H224.233C225.823 456.821 227.113 455.532 227.113 453.941V452.526C227.113 450.936 225.823 449.646 224.233 449.646Z" fill="#E6E6E6"/>
<path d="M278.644 450.244H236.613C235.022 450.244 233.733 451.534 233.733 453.124V454.539C233.733 456.13 235.022 457.419 236.613 457.419H278.644C280.234 457.419 281.524 456.13 281.524 454.539V453.124C281.524 451.534 280.234 450.244 278.644 450.244Z" fill="#E6E6E6"/>
<path d="M244.163 433.453H236.213C234.622 433.453 233.333 434.743 233.333 436.333V437.748C233.333 439.339 234.622 440.628 236.213 440.628H244.163C245.754 440.628 247.043 439.339 247.043 437.748V436.333C247.043 434.743 245.754 433.453 244.163 433.453Z" fill="#E6E6E6"/>
<path d="M318.904 433.453H310.954C309.364 433.453 308.074 434.743 308.074 436.333V437.748C308.074 439.339 309.364 440.628 310.954 440.628H318.904C320.495 440.628 321.784 439.339 321.784 437.748V436.333C321.784 434.743 320.495 433.453 318.904 433.453Z" fill="#E6E6E6"/>
<path d="M340.08 433.453H332.13C330.539 433.453 329.25 434.743 329.25 436.333V437.748C329.25 439.339 330.539 440.628 332.13 440.628H340.08C341.671 440.628 342.96 439.339 342.96 437.748V436.333C342.96 434.743 341.671 433.453 340.08 433.453Z" fill="#E6E6E6"/>
<path d="M298.574 434.051H256.543C254.953 434.051 253.663 435.34 253.663 436.931V438.346C253.663 439.936 254.953 441.226 256.543 441.226H298.574C300.165 441.226 301.454 439.936 301.454 438.346V436.931C301.454 435.34 300.165 434.051 298.574 434.051Z" fill="#E6E6E6"/>
<path d="M264.094 417.258H256.144C254.554 417.258 253.264 418.547 253.264 420.138V421.553C253.264 423.143 254.554 424.433 256.144 424.433H264.094C265.685 424.433 266.974 423.143 266.974 421.553V420.138C266.974 418.547 265.685 417.258 264.094 417.258Z" fill="#E6E6E6"/>
<path d="M338.834 417.258H330.884C329.293 417.258 328.004 418.547 328.004 420.138V421.553C328.004 423.143 329.293 424.433 330.884 424.433H338.834C340.424 424.433 341.714 423.143 341.714 421.553V420.138C341.714 418.547 340.424 417.258 338.834 417.258Z" fill="#E6E6E6"/>
<path d="M360.011 417.258H352.061C350.471 417.258 349.181 418.547 349.181 420.138V421.553C349.181 423.143 350.471 424.433 352.061 424.433H360.011C361.602 424.433 362.891 423.143 362.891 421.553V420.138C362.891 418.547 361.602 417.258 360.011 417.258Z" fill="#E6E6E6"/>
<path d="M318.505 417.857H276.474C274.884 417.857 273.594 419.147 273.594 420.737V422.152C273.594 423.743 274.884 425.032 276.474 425.032H318.505C320.096 425.032 321.385 423.743 321.385 422.152V420.737C321.385 419.147 320.096 417.857 318.505 417.857Z" fill="#E6E6E6"/>
<path d="M284.025 401.066H276.075C274.484 401.066 273.195 402.356 273.195 403.946V405.361C273.195 406.952 274.484 408.241 276.075 408.241H284.025C285.615 408.241 286.905 406.952 286.905 405.361V403.946C286.905 402.356 285.615 401.066 284.025 401.066Z" fill="#E6E6E6"/>
<path d="M358.765 401.066H350.815C349.224 401.066 347.935 402.356 347.935 403.946V405.361C347.935 406.952 349.224 408.241 350.815 408.241H358.765C360.356 408.241 361.645 406.952 361.645 405.361V403.946C361.645 402.356 360.356 401.066 358.765 401.066Z" fill="#E6E6E6"/>
<path d="M379.942 401.066H371.992C370.401 401.066 369.112 402.356 369.112 403.946V405.361C369.112 406.952 370.401 408.241 371.992 408.241H379.942C381.532 408.241 382.822 406.952 382.822 405.361V403.946C382.822 402.356 381.532 401.066 379.942 401.066Z" fill="#E6E6E6"/>
<path d="M338.436 401.664H296.405C294.814 401.664 293.525 402.953 293.525 404.544V405.959C293.525 407.55 294.814 408.839 296.405 408.839H338.436C340.026 408.839 341.316 407.55 341.316 405.959V404.544C341.316 402.953 340.026 401.664 338.436 401.664Z" fill="#E6E6E6"/>
<path d="M332.627 416.949C332.627 416.949 353.24 445.885 345.878 453.72C338.516 461.555 401.108 461.75 401.108 461.75C401.108 461.75 391.708 419.656 394.473 409.969L332.627 416.949Z" fill="#FFB9B9"/>
<path d="M517.964 683.589C517.204 683.975 516.432 684.361 515.672 684.735C495.99 694.576 480.245 700.169 458.708 706.298C456.889 685.998 455.133 650.305 453.426 628.182C452.978 622.44 452.526 617.619 452.093 614.218C451.982 612.409 451.611 610.626 450.993 608.924L451.068 614.218L451.255 628.182L452.339 708.042C425.548 715.13 398.027 719.097 370.324 719.863C368.879 719.9 367.459 719.925 366.089 719.95C365.603 719.962 365.13 719.975 364.656 719.975C363.099 719.988 361.556 720 359.997 720C330.804 720.021 301.716 716.496 273.373 709.5C273.983 689.407 274.594 654.117 275.179 628.182C275.304 623.112 275.416 618.391 275.54 614.218C275.777 605.299 276.026 598.871 276.263 596.718C276.053 597.099 275.89 597.505 275.777 597.926C274.624 603.297 273.837 608.74 273.423 614.219C272.987 618.392 272.551 623.113 272.115 628.183C269.798 655.127 267.382 691.762 264.89 707.296C250.061 703.247 235.51 698.242 221.329 692.311C213.857 689.195 206.517 685.836 199.309 682.232C200.679 673.263 202.109 663.211 203.582 652.784C204.728 644.7 205.911 636.391 207.12 628.184C208.988 615.503 210.907 603.071 212.85 592.122C215.69 576.128 218.605 563.272 221.495 557.368C224.236 551.762 226.976 546.232 229.629 540.938C230.551 539.082 231.473 537.251 232.37 535.47C232.582 535.046 232.794 534.635 233.005 534.224C234.911 530.475 236.755 526.887 238.511 523.524C240.018 520.646 241.451 517.931 242.811 515.424C246.1 509.345 248.89 504.499 250.958 501.435C259.603 488.321 272.473 478.559 287.431 473.769L287.805 473.669L288.067 473.781L313.541 465.958L317.266 464.812L319.766 464.04L328.585 457.326L333.385 453.676L337.885 450.25L346.679 443.561L401.127 446.912L411.727 472.436L435.469 481.118L435.88 480.931L436.241 480.782L436.615 480.882C451.571 485.677 464.439 495.438 473.088 508.548C474.259 510.304 475.679 512.621 477.288 515.424C478.658 517.803 480.153 520.519 481.772 523.524C484.072 527.797 486.593 532.617 489.259 537.837C489.844 538.983 490.442 540.154 491.04 541.337C492.149 543.529 493.274 545.767 494.416 548.051C497.069 553.345 499.81 558.876 502.55 564.494C504.929 569.365 507.333 579.38 509.7 592.123C511.656 602.711 513.6 615.193 515.48 628.185C517.946 645.027 515.318 665.194 517.548 680.69C517.678 681.671 517.827 682.63 517.964 683.589Z" fill="#3F3D56"/>
<path d="M360.767 423.187C395.741 423.187 424.093 394.835 424.093 359.861C424.093 324.887 395.741 296.535 360.767 296.535C325.793 296.535 297.441 324.887 297.441 359.861C297.441 394.835 325.793 423.187 360.767 423.187Z" fill="#FFB9B9"/>
<path d="M465.198 275.941C463.947 273.018 462.281 270.29 460.253 267.841C450.636 256.094 433.147 250.925 415.197 264.826C411.742 264.055 408.141 264.263 404.797 265.426C403.218 265.998 401.739 266.813 400.412 267.843C397.693 269.964 395.573 272.755 394.258 275.943C393.555 277.626 393.094 279.4 392.888 281.212C388.451 278.906 383.755 277.138 378.899 275.943C366.985 272.979 354.527 272.979 342.613 275.943C338.795 276.909 335.119 278.366 331.676 280.278C325.846 283.641 322.495 287.889 321.897 292.61C313.489 293.083 304.744 297.51 298.229 304.755C297.494 305.565 296.784 306.412 296.124 307.284C290.645 314.452 287.701 323.236 287.752 332.258V333.84H289.334C293.669 333.835 297.963 334.673 301.978 336.306C304.58 337.351 307.044 338.71 309.315 340.354C310.802 341.408 312.206 342.574 313.515 343.842C316.549 346.779 319.12 350.161 321.139 353.87C326.314 363.243 328.109 374.111 326.221 384.651C325.788 387.09 325.155 389.49 324.328 391.826C323.151 395.157 321.6 398.344 319.706 401.326C319.631 401.438 319.569 401.55 319.494 401.662C318.659 402.995 317.862 404.353 317.115 405.723C316.554 406.744 316.031 407.791 315.545 408.837C314.125 411.749 312.926 414.764 311.958 417.856C310.224 423.324 309.203 428.993 308.918 434.722C308.831 436.242 308.806 437.761 308.856 439.281C308.93 443.198 309.36 447.101 310.139 450.941C310.251 451.464 310.363 451.975 310.475 452.498L311.384 456.472L313.539 465.952L315.034 472.479L316.417 478.533L318.46 475.606C319.16 474.606 320.914 471.545 323.268 467.206C324.825 464.378 326.631 461.006 328.587 457.315C331.315 452.145 334.305 446.378 337.232 440.623C338.415 438.294 339.586 435.977 340.72 433.71C342.863 429.41 344.881 425.264 346.612 421.577C348.206 418.177 349.564 415.162 350.573 412.745C350.884 414.327 351.146 415.934 351.345 417.553C351.569 419.197 351.731 420.866 351.818 422.536C351.843 422.785 351.855 423.047 351.868 423.296L351.918 424.318L351.93 424.618L353.25 424.792C360.866 425.607 368.543 425.666 376.17 424.966H376.182C386.286 424.205 396.199 421.803 405.53 417.853C410.83 415.554 415.779 412.517 420.23 408.834C422.308 407.112 424.247 405.23 426.03 403.204C426.478 402.693 426.914 402.183 427.338 401.659C429.803 398.629 431.914 395.327 433.629 391.818C434.778 389.502 435.752 387.104 436.544 384.643C441.327 370.156 441.053 352.081 435.722 330.606C437.162 330.328 438.541 329.797 439.795 329.036C443.706 326.682 446.422 322.01 447.269 316.305L448.614 316.666C453.383 314.445 457.632 311.245 461.083 307.274C461.767 306.465 462.407 305.621 463.001 304.745C469.097 295.783 469.147 285.022 465.198 275.941Z" fill="#090814"/>
<path opacity="0.2" d="M257.009 592.063L267.589 551.211L276.935 586.458L257.009 592.063Z" fill="black"/>
<path d="M538.667 565.448C534.88 617.617 538.804 640.587 517.902 683.6C498.884 692.91 479.074 700.506 458.708 706.3C456.59 706.9 454.468 707.481 452.343 708.044C425.552 715.133 398.03 719.1 370.328 719.866C368.883 719.903 367.463 719.928 366.093 719.953C365.607 719.966 365.134 719.978 364.66 719.978C363.103 719.99 361.56 720.003 360.001 720.003C330.807 720.025 301.72 716.499 273.377 709.503C270.537 708.805 267.709 708.07 264.894 707.298C250.065 703.25 235.514 698.244 221.333 692.313C213.859 689.199 206.517 685.84 199.309 682.235C197.677 681.413 196.045 680.591 194.438 679.744C186.179 665.22 181.483 647.556 181.383 626.33C187.102 589.751 526.036 533.908 538.667 565.448Z" fill="#090814"/>
<path opacity="0.2" d="M538.658 574.381C538.851 571.151 539.068 567.815 539.32 564.341C526.689 532.801 187.754 588.641 182.036 625.217C182.052 628.57 182.195 631.824 182.436 635.001C196.283 598.904 518.276 545.829 538.658 574.381Z" fill="black"/>
<path d="M203.165 426.209C203.248 425.08 203.087 423.946 202.695 422.884C202.302 421.821 201.687 420.856 200.89 420.051C200.093 419.247 199.133 418.622 198.074 418.22C197.016 417.818 195.883 417.647 194.753 417.719C194.332 417.735 193.913 417.788 193.501 417.876L143.971 429.065C142.864 429.334 141.826 429.831 140.923 430.525C140.02 431.219 139.272 432.095 138.728 433.095C138.002 433.123 137.28 433.227 136.576 433.408C135.017 433.74 133.539 434.378 132.228 435.285C130.917 436.192 129.8 437.351 128.941 438.694C128.081 440.037 127.497 441.537 127.223 443.107C126.948 444.678 126.988 446.287 127.341 447.842C127.693 449.396 128.351 450.865 129.276 452.164C130.201 453.462 131.375 454.564 132.73 455.405C134.084 456.246 135.592 456.809 137.166 457.062C138.74 457.316 140.348 457.254 141.898 456.88C143.67 456.469 145.327 455.667 146.749 454.533L163.533 501.795C164.371 503.276 165.667 504.446 167.225 505.13C168.783 505.814 170.521 505.976 172.179 505.59L204.379 498.313C206.024 497.928 207.504 497.031 208.608 495.752C209.711 494.473 210.381 492.877 210.521 491.193L203.165 426.209ZM141.154 453.517C140.052 453.769 138.911 453.801 137.797 453.612C136.682 453.423 135.616 453.016 134.659 452.415C132.725 451.2 131.353 449.268 130.845 447.042C130.593 445.94 130.561 444.799 130.75 443.685C130.939 442.57 131.346 441.504 131.947 440.547C132.549 439.589 133.333 438.76 134.254 438.106C135.176 437.451 136.218 436.985 137.32 436.733C137.476 436.694 137.633 436.733 137.79 436.694C137.778 438.12 138.142 439.523 138.846 440.763L144.988 451.48C143.919 452.496 142.594 453.2 141.154 453.517Z" fill="#090814"/>
<path d="M194.754 417.719C195.224 423.979 184.504 431.178 170.145 434.034C156.96 436.734 145.145 434.855 141.819 429.926C142.487 429.529 143.213 429.239 143.971 429.065L193.501 417.876C193.913 417.787 194.333 417.735 194.754 417.719Z" fill="#3F3D56"/>
<path d="M160.498 576.629L188.318 562.719L165.134 500.119L159.024 468.551C158.23 464.45 156.374 460.629 153.64 457.47C150.907 454.311 147.393 451.925 143.448 450.549C139.504 449.174 135.268 448.858 131.163 449.633C127.058 450.408 123.229 452.246 120.057 454.964C115.358 458.994 112.407 464.691 111.829 470.854C111.251 477.017 113.089 483.164 116.957 487.997L139.637 516.347L160.498 576.629Z" fill="#FFB9B9"/>
<path d="M188.319 551.126L151.226 569.673L179.376 657.873C181.398 664.207 185.021 669.911 189.896 674.432C194.771 678.954 200.731 682.139 207.199 683.679C215.174 685.578 223.547 684.889 231.103 681.71C238.66 678.531 245.007 673.028 249.226 665.999L323.87 538.05C329.16 529.233 330.793 518.698 328.42 508.694C326.047 498.69 319.856 490.01 311.17 484.509C306.498 481.55 301.256 479.608 295.784 478.81C290.313 478.011 284.734 478.373 279.411 479.873C274.089 481.373 269.142 483.977 264.892 487.515C260.643 491.053 257.186 495.446 254.746 500.409L209.184 597.492L188.319 551.126Z" fill="#3F3D56"/>
</g>
<defs>
<clipPath id="clip0_350_38">
<rect width="720" height="719.998" fill="white"/>
</clipPath>
</defs>
</svg>
